<svg xmlns="http://www.w3.org/2000/svg" width="252" height="209" viewBox="0 0 252 209">
  <g id="Grupo_146070" data-name="Grupo 146070" transform="translate(-216 -444)">
    <g id="Right" transform="translate(215.5 444)">
      <rect id="BG" width="252" height="209" transform="translate(0.5)" fill="#fff" opacity="0.949"/>
    </g>
    <g id="subasta" transform="translate(272 485)">
      <g id="Grupo_146018" data-name="Grupo 146018" transform="translate(11.081 3.016)">
        <path id="Trazado_194238" data-name="Trazado 194238" d="M94.71,110.871H30.194V114.9a8.065,8.065,0,0,1-16.129,0V10.065A8.065,8.065,0,0,0,6,2H80.6A14.113,14.113,0,0,1,94.71,16.113Z" transform="translate(-6 -2)" fill="#b8f0f5"/>
      </g>
      <g id="Grupo_146019" data-name="Grupo 146019" transform="translate(11.081 3.016)">
        <path id="Trazado_194239" data-name="Trazado 194239" d="M14.065,10.065V92.573A44.645,44.645,0,0,0,42.29,102.806c26.724,0,48.387-24.371,48.387-54.435C90.677,28.764,81.46,11.583,67.635,2H6A8.065,8.065,0,0,1,14.065,10.065Z" transform="translate(-6 -2)" fill="#d9fcff"/>
      </g>
      <g id="Grupo_146021" data-name="Grupo 146021" transform="translate(27.21 111.887)">
        <g id="Grupo_146020" data-name="Grupo 146020">
          <path id="Trazado_194240" data-name="Trazado 194240" d="M86.581,56H22.065v4.032A8.065,8.065,0,0,1,14,68.1H86.581a8.065,8.065,0,0,0,8.065-8.065V56Z" transform="translate(-14 -56)" fill="#79dae1"/>
        </g>
      </g>
      <g id="Grupo_146022" data-name="Grupo 146022" transform="translate(3.016 3.016)">
        <path id="Trazado_194241" data-name="Trazado 194241" d="M18.129,26.194H2V10.065a8.065,8.065,0,0,1,16.129,0Z" transform="translate(-2 -2)" fill="#79dae1"/>
      </g>
      <g id="Grupo_146023" data-name="Grupo 146023" transform="translate(27.21 71.565)">
        <circle id="Elipse_1282" data-name="Elipse 1282" cx="16" cy="16" r="16" transform="translate(-0.21 0.436)" fill="#79dae1"/>
      </g>
      <g id="Grupo_146024" data-name="Grupo 146024" transform="translate(35.274 79.629)">
        <circle id="Elipse_1283" data-name="Elipse 1283" cx="8" cy="8" r="8" transform="translate(-0.274 0.371)" fill="#d9fcff"/>
      </g>
      <g id="Grupo_146025" data-name="Grupo 146025" transform="translate(93.721 73.584)">
        <path id="Trazado_194242" data-name="Trazado 194242" d="M0,0H7.129V35.641H0Z" transform="translate(0 5.04) rotate(-45)" fill="#ef9f14"/>
      </g>
      <g id="Grupo_146026" data-name="Grupo 146026" transform="translate(79.612 59.472)">
        <path id="Trazado_194243" data-name="Trazado 194243" d="M0,0H19.958V14.256H0Z" transform="translate(0 14.11) rotate(-45)" fill="#ef9f14"/>
      </g>
      <g id="Grupo_146027" data-name="Grupo 146027" transform="translate(71.548 71.565)">
        <path id="Trazado_194244" data-name="Trazado 194244" d="M0,0H8.554V19.958H0Z" transform="translate(0 6.048) rotate(-45)" fill="#ef9f14"/>
      </g>
      <g id="Grupo_146028" data-name="Grupo 146028" transform="translate(91.709 51.407)">
        <path id="Trazado_194245" data-name="Trazado 194245" d="M0,0H8.554V19.958H0Z" transform="translate(0 6.048) rotate(-45)" fill="#ef9f14"/>
      </g>
      <g id="Grupo_146029" data-name="Grupo 146029" transform="translate(1 1)">
        <path id="Trazado_194246" data-name="Trazado 194246" d="M99.79,126H27.21a10.092,10.092,0,0,1-10.081-10.081V29.226H3.016A2.016,2.016,0,0,1,1,27.21V11.081a10.081,10.081,0,0,1,20.161,0V115.919a6.048,6.048,0,0,0,12.1,0v-4.032a2.016,2.016,0,0,1,2.016-2.016h72.581a2.016,2.016,0,0,1,2.016,2.016v4.032A10.092,10.092,0,0,1,99.79,126Zm-64.52-4.032H99.79a6.056,6.056,0,0,0,6.048-6.048V113.9H37.29v2.016a10.027,10.027,0,0,1-2.02,6.048ZM5.032,25.194h12.1V11.081a6.048,6.048,0,0,0-12.1,0Z" transform="translate(-1 -1)" fill="#104469"/>
      </g>
      <g id="Grupo_146030" data-name="Grupo 146030" transform="translate(97.774 84.669)">
        <path id="Trazado_194247" data-name="Trazado 194247" d="M49,42.5h4.032V69.718H49Z" transform="translate(-49 -42.5)" fill="#104469"/>
      </g>
      <g id="Grupo_146031" data-name="Grupo 146031" transform="translate(11.081 1)">
        <path id="Trazado_194248" data-name="Trazado 194248" d="M96.726,53.419H92.694V15.113A10.092,10.092,0,0,0,82.613,5.032H6V1H82.613A14.13,14.13,0,0,1,96.726,15.113Z" transform="translate(-6 -1)" fill="#104469"/>
      </g>
      <g id="Grupo_146032" data-name="Grupo 146032" transform="translate(69.548 69.548)">
        <path id="Trazado_194249" data-name="Trazado 194249" d="M51.129,59.194A2.011,2.011,0,0,1,49.7,58.6L35.591,44.49a2.014,2.014,0,0,1,0-2.851l6.048-6.048a2.014,2.014,0,0,1,2.851,0L58.6,49.7a2.014,2.014,0,0,1,0,2.851L52.555,58.6A2.011,2.011,0,0,1,51.129,59.194ZM39.867,43.065,51.129,54.327l3.2-3.2L43.065,39.867Z" transform="translate(-35 -35)" fill="#104469"/>
      </g>
      <g id="Grupo_146033" data-name="Grupo 146033" transform="translate(89.709 49.387)">
        <path id="Trazado_194250" data-name="Trazado 194250" d="M61.129,49.194A2.011,2.011,0,0,1,59.7,48.6L45.591,34.49a2.014,2.014,0,0,1,0-2.851l6.048-6.048a2.014,2.014,0,0,1,2.851,0L68.6,39.7a2.014,2.014,0,0,1,0,2.851L62.555,48.6A2.011,2.011,0,0,1,61.129,49.194ZM49.867,33.065,61.129,44.327l3.2-3.2L53.065,29.867Z" transform="translate(-45 -25)" fill="#104469"/>
      </g>
      <g id="Grupo_146034" data-name="Grupo 146034" transform="translate(78.188 58.046)">
        <path id="Trazado_194251" data-name="Trazado 194251" d="M0,0H19.958V4.032H0Z" transform="translate(0 14.11) rotate(-45)" fill="#104469"/>
      </g>
      <g id="Grupo_146035" data-name="Grupo 146035" transform="translate(88.267 68.127)">
        <path id="Trazado_194252" data-name="Trazado 194252" d="M0,0H19.958V4.032H0Z" transform="translate(0 14.11) rotate(-45)" fill="#104469"/>
      </g>
      <g id="Grupo_146036" data-name="Grupo 146036" transform="translate(92.317 72.155)">
        <path id="Trazado_194253" data-name="Trazado 194253" d="M72.92,69.976a2.011,2.011,0,0,1-1.425-.591l-25.2-25.2,2.851-2.851L72.92,65.11l2.19-2.19L51.333,39.144l2.851-2.851,25.2,25.2a2.014,2.014,0,0,1,0,2.851l-5.04,5.04A2.011,2.011,0,0,1,72.92,69.976Z" transform="translate(-46.293 -36.293)" fill="#104469"/>
      </g>
      <g id="Grupo_146037" data-name="Grupo 146037" transform="translate(27.21 37.29)">
        <path id="Trazado_194254" data-name="Trazado 194254" d="M14,19H80.532v4.032H14Z" transform="translate(-14 -19)" fill="#104469"/>
      </g>
      <g id="Grupo_146038" data-name="Grupo 146038" transform="translate(27.21 53.419)">
        <path id="Trazado_194255" data-name="Trazado 194255" d="M14,27H72.468v4.032H14Z" transform="translate(-14 -27)" fill="#104469"/>
      </g>
      <g id="Grupo_146039" data-name="Grupo 146039" transform="translate(27.21 45.355)">
        <path id="Trazado_194256" data-name="Trazado 194256" d="M14,23H80.532v4.032H14Z" transform="translate(-14 -23)" fill="#104469"/>
      </g>
      <g id="Grupo_146040" data-name="Grupo 146040" transform="translate(27.21 21.161)">
        <path id="Trazado_194257" data-name="Trazado 194257" d="M14,11H80.532v4.032H14Z" transform="translate(-14 -11)" fill="#104469"/>
      </g>
      <g id="Grupo_146041" data-name="Grupo 146041" transform="translate(27.21 13.097)">
        <path id="Trazado_194258" data-name="Trazado 194258" d="M14,7H80.532v4.032H14Z" transform="translate(-14 -7)" fill="#104469"/>
      </g>
      <g id="Grupo_146042" data-name="Grupo 146042" transform="translate(27.21 29.226)">
        <path id="Trazado_194259" data-name="Trazado 194259" d="M14,15H80.532v4.032H14Z" transform="translate(-14 -15)" fill="#104469"/>
      </g>
      <g id="Grupo_146043" data-name="Grupo 146043" transform="translate(27.21 61.484)">
        <path id="Trazado_194260" data-name="Trazado 194260" d="M14,31H68.435v4.032H14Z" transform="translate(-14 -31)" fill="#104469"/>
      </g>
      <g id="Grupo_146044" data-name="Grupo 146044" transform="translate(25.194 69.548)">
        <path id="Trazado_194261" data-name="Trazado 194261" d="M31.145,71.29A18.145,18.145,0,1,1,49.29,53.145,18.166,18.166,0,0,1,31.145,71.29Zm0-32.258A14.113,14.113,0,1,0,45.258,53.145,14.13,14.13,0,0,0,31.145,39.032Z" transform="translate(-13 -35)" fill="#104469"/>
      </g>
      <g id="Grupo_146045" data-name="Grupo 146045" transform="translate(33.258 77.613)">
        <path id="Trazado_194262" data-name="Trazado 194262" d="M27.081,59.161A10.081,10.081,0,1,1,37.161,49.081,10.092,10.092,0,0,1,27.081,59.161Zm0-16.129a6.048,6.048,0,1,0,6.048,6.048A6.056,6.056,0,0,0,27.081,43.032Z" transform="translate(-17 -39)" fill="#104469"/>
      </g>
      <g id="Grupo_146046" data-name="Grupo 146046" transform="translate(65.516 95.757)">
        <path id="Trazado_194263" data-name="Trazado 194263" d="M57.194,58.081H49.129A8.067,8.067,0,0,1,42.3,54.3a13.3,13.3,0,0,1-9.3,3.78V54.049a9.268,9.268,0,0,0,7.726-4.135L41.4,48.9A2.016,2.016,0,0,1,45.1,50.017a4.036,4.036,0,0,0,4.032,4.032h8.065Z" transform="translate(-33 -47.999)" fill="#104469"/>
      </g>
    </g>
  </g>
</svg>
