<svg xmlns="http://www.w3.org/2000/svg" xmlns:xlink="http://www.w3.org/1999/xlink" width="399" height="498" viewBox="0 0 399 498">
  <defs>
    <clipPath id="clip-path">
      <rect id="Rectángulo_44603" data-name="Rectángulo 44603" width="224.044" height="372.613" fill="#ace6eb"/>
    </clipPath>
    <clipPath id="clip-path-2">
      <rect id="Rectángulo_44599" data-name="Rectángulo 44599" width="232" height="320" transform="translate(211 2747.158)" fill="#fff" stroke="#707070" stroke-width="1"/>
    </clipPath>
    <clipPath id="clip-path-3">
      <rect id="Rectángulo_44598" data-name="Rectángulo 44598" width="221.215" height="335.531" fill="none"/>
    </clipPath>
  </defs>
  <g id="Grupo_146376" data-name="Grupo 146376" transform="translate(-601 -2560)">
    <rect id="Rectángulo_44596" data-name="Rectángulo 44596" width="399" height="498" rx="8" transform="translate(601 2560)" fill="#b0eef4"/>
    <path id="Trazado_195523" data-name="Trazado 195523" d="M15.539,0h-4.09L5.4-10.617V0H1.289V-17.062H5.4L11.438-6.445V-17.062h4.1Zm1.922-6.457A7.484,7.484,0,0,1,18.2-9.838a5.28,5.28,0,0,1,2.121-2.279,6.388,6.388,0,0,1,3.246-.8,5.83,5.83,0,0,1,4.488,1.764,6.768,6.768,0,0,1,1.641,4.8v.141a6.566,6.566,0,0,1-1.646,4.705A5.846,5.846,0,0,1,23.59.234a5.912,5.912,0,0,1-4.348-1.623,6.348,6.348,0,0,1-1.77-4.4Zm3.949.246a4.718,4.718,0,0,0,.551,2.578,1.835,1.835,0,0,0,1.629.82q2.109,0,2.156-3.246v-.4q0-3.41-2.18-3.41-1.98,0-2.145,2.941ZM45.082-9.105l-1.3-.094a2.336,2.336,0,0,0-2.391,1.172V0H37.441V-12.68h3.7l.129,1.629a3.058,3.058,0,0,1,2.777-1.863,3.851,3.851,0,0,1,1.1.141ZM52.418.234A6.518,6.518,0,0,1,47.7-1.506a6.009,6.009,0,0,1-1.8-4.529v-.328A7.787,7.787,0,0,1,46.611-9.8a5.274,5.274,0,0,1,2.1-2.3A6.35,6.35,0,0,1,52-12.914a5.489,5.489,0,0,1,4.219,1.658,6.516,6.516,0,0,1,1.547,4.623V-5.1H49.91a2.846,2.846,0,0,0,.926,1.676,2.755,2.755,0,0,0,1.852.609,3.549,3.549,0,0,0,2.93-1.312l1.8,2.133A5.045,5.045,0,0,1,55.33-.369,7.069,7.069,0,0,1,52.418.234Zm-.445-10.1q-1.734,0-2.062,2.3h3.984v-.3a1.956,1.956,0,0,0-.48-1.471A1.912,1.912,0,0,0,51.973-9.867Zm14.016,6.3a.912.912,0,0,0-.527-.809,8.021,8.021,0,0,0-2-.633,9.138,9.138,0,0,1-2.437-.861A4.083,4.083,0,0,1,59.555-7.16a3.092,3.092,0,0,1-.5-1.746,3.5,3.5,0,0,1,1.441-2.877,5.938,5.938,0,0,1,3.773-1.131A6.579,6.579,0,0,1,68.3-11.777,3.555,3.555,0,0,1,69.82-8.789H65.859q0-1.523-1.605-1.523a1.591,1.591,0,0,0-1.043.346,1.07,1.07,0,0,0-.422.861.982.982,0,0,0,.516.855,4.872,4.872,0,0,0,1.646.539,14.228,14.228,0,0,1,1.986.5Q69.8-6.223,69.8-3.68A3.321,3.321,0,0,1,68.256-.855a6.758,6.758,0,0,1-3.99,1.09,6.9,6.9,0,0,1-2.906-.586,4.86,4.86,0,0,1-1.992-1.594,3.609,3.609,0,0,1-.715-2.121h3.691a1.526,1.526,0,0,0,.586,1.283,2.41,2.41,0,0,0,1.441.4,1.9,1.9,0,0,0,1.213-.328A1.05,1.05,0,0,0,65.988-3.562ZM83.414-6.246a7.646,7.646,0,0,1-1.33,4.717A4.264,4.264,0,0,1,78.492.234a3.655,3.655,0,0,1-2.871-1.277V4.875H71.672V-12.68h3.691l.117,1.172a3.656,3.656,0,0,1,2.988-1.406,4.3,4.3,0,0,1,3.645,1.729,7.741,7.741,0,0,1,1.3,4.752Zm-3.949-.246q0-3.375-1.969-3.375a1.859,1.859,0,0,0-1.875,1.008v4.992a1.919,1.919,0,0,0,1.9,1.055q1.887,0,1.945-3.258Zm5.191.035a7.484,7.484,0,0,1,.738-3.381,5.28,5.28,0,0,1,2.121-2.279,6.388,6.388,0,0,1,3.246-.8A5.83,5.83,0,0,1,95.25-11.15a6.768,6.768,0,0,1,1.641,4.8v.141a6.566,6.566,0,0,1-1.646,4.705A5.846,5.846,0,0,1,90.785.234a5.912,5.912,0,0,1-4.348-1.623,6.348,6.348,0,0,1-1.77-4.4Zm3.949.246a4.718,4.718,0,0,0,.551,2.578,1.835,1.835,0,0,0,1.629.82q2.109,0,2.156-3.246v-.4q0-3.41-2.18-3.41-1.98,0-2.145,2.941Zm13.652-6.469.129,1.488a4.3,4.3,0,0,1,3.621-1.723,3.618,3.618,0,0,1,2.959,1.184,5.635,5.635,0,0,1,1.014,3.563V0H106.02V-8a2.14,2.14,0,0,0-.387-1.412,1.789,1.789,0,0,0-1.406-.451,1.883,1.883,0,0,0-1.723.914V0H98.555V-12.68ZM118.8-3.562a.912.912,0,0,0-.527-.809,8.021,8.021,0,0,0-2-.633,9.138,9.138,0,0,1-2.437-.861,4.083,4.083,0,0,1-1.465-1.295,3.092,3.092,0,0,1-.5-1.746,3.5,3.5,0,0,1,1.441-2.877,5.938,5.938,0,0,1,3.773-1.131,6.579,6.579,0,0,1,4.031,1.137,3.555,3.555,0,0,1,1.523,2.988h-3.961q0-1.523-1.605-1.523a1.591,1.591,0,0,0-1.043.346,1.07,1.07,0,0,0-.422.861.982.982,0,0,0,.516.855,4.872,4.872,0,0,0,1.646.539,14.228,14.228,0,0,1,1.986.5q2.859.984,2.859,3.527a3.321,3.321,0,0,1-1.541,2.824,6.758,6.758,0,0,1-3.99,1.09,6.9,6.9,0,0,1-2.906-.586,4.86,4.86,0,0,1-1.992-1.594,3.609,3.609,0,0,1-.715-2.121h3.691a1.526,1.526,0,0,0,.586,1.283,2.41,2.41,0,0,0,1.441.4,1.9,1.9,0,0,0,1.213-.328A1.05,1.05,0,0,0,118.8-3.562ZM131.6,0a4.459,4.459,0,0,1-.375-1.137A3.672,3.672,0,0,1,128.18.234,4.5,4.5,0,0,1,125.133-.85a3.45,3.45,0,0,1-1.254-2.725A3.546,3.546,0,0,1,125.4-6.691a7.761,7.761,0,0,1,4.43-1.055h1.219v-.671q0-1.755-1.512-1.755a1.236,1.236,0,0,0-1.406,1.39h-3.949a3.54,3.54,0,0,1,1.564-2.985,6.575,6.575,0,0,1,3.99-1.147,5.764,5.764,0,0,1,3.832,1.184,4.115,4.115,0,0,1,1.441,3.246v5.613A5.748,5.748,0,0,0,135.551-.2V0Zm-2.473-2.578a2.2,2.2,0,0,0,1.225-.316,1.983,1.983,0,0,0,.7-.715V-5.637H129.9q-2.062,0-2.062,1.852a1.131,1.131,0,0,0,.363.873A1.315,1.315,0,0,0,129.129-2.578Zm19.84-3.656a7.728,7.728,0,0,1-1.289,4.793A4.318,4.318,0,0,1,144.047.234,3.747,3.747,0,0,1,140.93-1.3L140.766,0h-3.539V-18h3.949v6.34a3.615,3.615,0,0,1,2.848-1.254,4.319,4.319,0,0,1,3.656,1.7,7.768,7.768,0,0,1,1.289,4.781Zm-3.961-.252a5.155,5.155,0,0,0-.486-2.6,1.639,1.639,0,0,0-1.494-.778,1.891,1.891,0,0,0-1.852,1.018v5.031a1.9,1.9,0,0,0,1.875,1.006,1.677,1.677,0,0,0,1.77-1.357A9.745,9.745,0,0,0,145.008-6.486ZM154.875,0h-3.961V-18h3.961Zm8.566.234a6.518,6.518,0,0,1-4.723-1.74,6.009,6.009,0,0,1-1.8-4.529v-.328a7.787,7.787,0,0,1,.721-3.434,5.274,5.274,0,0,1,2.1-2.3,6.35,6.35,0,0,1,3.281-.814,5.489,5.489,0,0,1,4.219,1.658,6.516,6.516,0,0,1,1.547,4.623V-5.1h-7.852a2.846,2.846,0,0,0,.926,1.676,2.755,2.755,0,0,0,1.852.609,3.549,3.549,0,0,0,2.93-1.312l1.8,2.133a5.045,5.045,0,0,1-2.092,1.623A7.069,7.069,0,0,1,163.441.234ZM163-9.867q-1.734,0-2.062,2.3h3.984v-.3a1.956,1.956,0,0,0-.48-1.471A1.912,1.912,0,0,0,163-9.867Zm14.016,6.3a.912.912,0,0,0-.527-.809,8.021,8.021,0,0,0-2-.633,9.138,9.138,0,0,1-2.437-.861,4.083,4.083,0,0,1-1.465-1.295,3.092,3.092,0,0,1-.5-1.746,3.5,3.5,0,0,1,1.441-2.877,5.938,5.938,0,0,1,3.773-1.131,6.579,6.579,0,0,1,4.031,1.137,3.555,3.555,0,0,1,1.523,2.988h-3.961q0-1.523-1.605-1.523a1.591,1.591,0,0,0-1.043.346,1.07,1.07,0,0,0-.422.861.982.982,0,0,0,.516.855,4.872,4.872,0,0,0,1.646.539,14.228,14.228,0,0,1,1.986.5q2.859.984,2.859,3.527a3.321,3.321,0,0,1-1.541,2.824,6.758,6.758,0,0,1-3.99,1.09,6.9,6.9,0,0,1-2.906-.586,4.86,4.86,0,0,1-1.992-1.594,3.609,3.609,0,0,1-.715-2.121h3.691a1.526,1.526,0,0,0,.586,1.283,2.41,2.41,0,0,0,1.441.4,1.9,1.9,0,0,0,1.213-.328A1.05,1.05,0,0,0,177.012-3.562ZM.609,23.566a7.746,7.746,0,0,1,1.3-4.746,4.282,4.282,0,0,1,3.633-1.734A3.641,3.641,0,0,1,8.4,18.422V12h3.961V30H8.813l-.2-1.359A3.739,3.739,0,0,1,5.52,30.234,4.274,4.274,0,0,1,1.934,28.5,7.991,7.991,0,0,1,.609,23.566Zm3.949.246q0,3.375,1.969,3.375a1.944,1.944,0,0,0,1.875-1.1V21.258a1.892,1.892,0,0,0-1.852-1.125q-1.828,0-1.98,2.953Zm16.184,6.422a6.518,6.518,0,0,1-4.723-1.74,6.009,6.009,0,0,1-1.8-4.529v-.328a7.787,7.787,0,0,1,.721-3.434,5.274,5.274,0,0,1,2.1-2.3,6.35,6.35,0,0,1,3.281-.814,5.489,5.489,0,0,1,4.219,1.658,6.516,6.516,0,0,1,1.547,4.623V24.9H18.234a2.846,2.846,0,0,0,.926,1.676,2.755,2.755,0,0,0,1.852.609,3.549,3.549,0,0,0,2.93-1.312l1.8,2.133a5.045,5.045,0,0,1-2.092,1.623A7.069,7.069,0,0,1,20.742,30.234Zm-.445-10.1q-1.734,0-2.062,2.3h3.984v-.3a1.956,1.956,0,0,0-.48-1.471A1.912,1.912,0,0,0,20.3,20.133ZM38.215,30h-4.1V12.938h4.1Zm9.48-4.641,3.4-12.422h4.594L49.945,30h-4.5l-5.7-17.062h4.559Zm18.047,1.453H60.105L59.121,30H54.727l6.258-17.062h3.867L71.156,30H66.738ZM61.09,23.637h3.668l-1.84-5.918Zm13.582,2.531a2.248,2.248,0,0,1,1.559.557,1.943,1.943,0,0,1,0,2.848,2.459,2.459,0,0,1-3.123-.006,1.942,1.942,0,0,1,0-2.836A2.229,2.229,0,0,1,74.672,26.168Zm0-9.352a2.248,2.248,0,0,1,1.559.557,1.943,1.943,0,0,1,0,2.848,2.459,2.459,0,0,1-3.123-.006,1.942,1.942,0,0,1,0-2.836A2.229,2.229,0,0,1,74.672,16.816Z" transform="translate(716 2685)" fill="#12263f"/>
    <g id="Grupo_146162" data-name="Grupo 146162" transform="translate(16)">
      <g id="Grupo_146150" data-name="Grupo 146150" transform="translate(714 2685.387)">
        <g id="Grupo_146149" data-name="Grupo 146149" clip-path="url(#clip-path)">
          <path id="Trazado_194635" data-name="Trazado 194635" d="M147.773,109.862S163.889,80.2,192.139,78.28c16.078-1.094,34.589,2.256,31.58,6.016s-24.813,36.093-75.946,25.566" fill="#ace6eb"/>
          <path id="Trazado_194636" data-name="Trazado 194636" d="M146.091,109.862s-5.679-33.272-31.8-44.211c-14.865-6.227-33.466-9.03-31.833-4.5s11.836,42.171,63.629,48.712" fill="#ace6eb"/>
          <path id="Trazado_194637" data-name="Trazado 194637" d="M147.6,78.751s16.48-29.457,3.03-54.373C142.975,10.2,130.262-3.669,128.688.881S111.409,41.129,147.6,78.751" fill="#ace6eb"/>
          <path id="Trazado_194638" data-name="Trazado 194638" d="M142.725,155.856S158.84,126.2,187.09,124.274c16.079-1.094,34.589,2.256,31.581,6.016s-24.814,36.093-75.946,25.566" fill="#ace6eb"/>
          <path id="Trazado_194639" data-name="Trazado 194639" d="M142.164,155.856s-8.875-32.566-35.929-40.923c-15.4-4.757-34.184-5.746-32.119-1.4s15.865,40.826,68.048,42.319" fill="#ace6eb"/>
          <path id="Trazado_194640" data-name="Trazado 194640" d="M134.987,200.689s21.1-26.342,49.25-23.24c16.019,1.766,33.646,8.336,30.02,11.5s-30.805,31.137-79.27,11.735" fill="#ace6eb"/>
          <path id="Trazado_194641" data-name="Trazado 194641" d="M133.994,200.338s-11.147-31.859-38.723-38.291c-15.7-3.66-34.5-3.323-32.138.871s18.7,39.607,70.861,37.42" fill="#ace6eb"/>
          <path id="Trazado_194642" data-name="Trazado 194642" d="M124.215,241.674s24.5-23.223,51.956-16.318c15.63,3.93,32.2,12.839,28.174,15.484s-34.756,26.654-80.13.834" fill="#ace6eb"/>
          <path id="Trazado_194643" data-name="Trazado 194643" d="M124.023,241.594s-13.713-30.842-41.721-35c-15.942-2.366-34.66-.494-31.96,3.493s21.875,37.947,73.681,31.506" fill="#ace6eb"/>
          <path id="Trazado_194644" data-name="Trazado 194644" d="M112.437,274.207s27.677-19.32,53.805-8.406c14.871,6.211,29.929,17.487,25.557,19.5s-38.336,21.185-79.362-11.1" fill="#ace6eb"/>
          <path id="Trazado_194645" data-name="Trazado 194645" d="M109.632,274.207s-11.675-31.67-39.353-37.643c-15.754-3.4-34.554-2.75-32.119,1.4s19.357,39.291,71.472,36.239" fill="#ace6eb"/>
          <path id="Trazado_194646" data-name="Trazado 194646" d="M95.609,307.3s-11.675-31.67-39.353-37.643c-15.754-3.4-34.554-2.75-32.119,1.4S43.494,310.352,95.609,307.3" fill="#ace6eb"/>
          <path id="Trazado_194647" data-name="Trazado 194647" d="M71.686,344.052s-11.675-31.67-39.353-37.643c-15.754-3.4-34.554-2.75-32.119,1.4S19.571,347.1,71.686,344.052" fill="#ace6eb"/>
          <path id="Trazado_194648" data-name="Trazado 194648" d="M96.731,307.3s27.677-19.32,53.8-8.406c14.871,6.211,29.929,17.487,25.557,19.5s-38.336,21.185-79.362-11.1" fill="#ace6eb"/>
          <path id="Trazado_194649" data-name="Trazado 194649" d="M72.612,344.881s27.677-19.32,53.805-8.406c14.871,6.211,29.929,17.487,25.557,19.5s-38.336,21.185-79.362-11.1" fill="#ace6eb"/>
          <path id="Trazado_194650" data-name="Trazado 194650" d="M50.737,372.613a1.37,1.37,0,0,1-1.012-2.293C74.3,343.388,94.649,310.773,110.2,273.383c12.451-29.939,21.875-62.99,28.009-98.234,10.448-60.05,7.666-106.247,7.636-106.707a1.369,1.369,0,1,1,2.733-.174c.03.462,2.834,46.924-7.66,107.279-6.164,35.455-15.642,68.712-28.174,98.848-15.675,37.7-36.2,70.6-61,97.771a1.371,1.371,0,0,1-1.013.447" fill="#ace6eb"/>
        </g>
      </g>
      <g id="Enmascarar_grupo_143957" data-name="Enmascarar grupo 143957" transform="translate(404 -9.158)" clip-path="url(#clip-path-2)">
        <g id="Grupo_146144" data-name="Grupo 146144" transform="translate(210.571 2764.551)">
          <g id="Grupo_146143" data-name="Grupo 146143" clip-path="url(#clip-path-3)">
            <path id="Trazado_194559" data-name="Trazado 194559" d="M166.955,19.4s2.319,6.122,2.057,8.493-1.535,3.593-.559,5.285,4.639,5.511,4.447,6.8-4.37,2.92-4.37,2.92-3,12.837-4.44,14.1-11.781-1.684-11.781-1.684l-11.066,13.1L124.967,50.091l4.078-4.42s-6.757-12.218-8.247-18.557,3.98-21.241,16.895-25.348,29.744,2.628,33.092,7.948-2.46,9.5-3.829,9.688" transform="translate(-10.646 -0.044)" fill="#fff"/>
            <path id="Trazado_194560" data-name="Trazado 194560" d="M166.955,19.4s2.319,6.122,2.057,8.493-1.535,3.593-.559,5.285,4.639,5.511,4.447,6.8-4.37,2.92-4.37,2.92-3,12.837-4.44,14.1-11.781-1.684-11.781-1.684l-11.066,13.1L124.967,50.091l4.078-4.42s-6.757-12.218-8.247-18.557,3.98-21.241,16.895-25.348,29.744,2.628,33.092,7.948S168.324,19.219,166.955,19.4Z" transform="translate(-10.646 -0.044)" fill="none" stroke="#104469" stroke-linecap="round" stroke-linejoin="round" stroke-width="1"/>
            <path id="Trazado_194561" data-name="Trazado 194561" d="M170.784,9.714c-3.348-5.32-20.178-12.053-33.093-7.948S119.307,20.775,120.8,27.114s8.247,18.557,8.247,18.557,7.63,2.068,9.784,1.5,9.793-4.525,9.793-4.525a16.63,16.63,0,0,1-3.366,0c-2-.183-3-3.994-3.627-7.727s3.183-4.734,4.927-4.838,1.744,3.261,2.59,4.455,3.078.253,3.4-.54-.88-7.387-.88-7.387,4.823-3.217,4.718-4.961-1.936-5.336-1.936-5.336l12.5,3.088c1.369-.183,7.177-4.368,3.829-9.688" transform="translate(-10.646 -0.044)" fill="#1a878e"/>
            <path id="Trazado_194562" data-name="Trazado 194562" d="M170.784,9.714c-3.348-5.32-20.178-12.053-33.093-7.948S119.307,20.775,120.8,27.114s8.247,18.557,8.247,18.557,7.63,2.068,9.784,1.5,9.793-4.525,9.793-4.525a16.63,16.63,0,0,1-3.366,0c-2-.183-3-3.994-3.627-7.727s3.183-4.734,4.927-4.838,1.744,3.261,2.59,4.455,3.078.253,3.4-.54-.88-7.387-.88-7.387,4.823-3.217,4.718-4.961-1.936-5.336-1.936-5.336l12.5,3.088C168.324,19.219,174.132,15.034,170.784,9.714Z" transform="translate(-10.646 -0.044)" fill="none" stroke="#104469" stroke-linecap="round" stroke-linejoin="round" stroke-width="1"/>
            <path id="Trazado_194563" data-name="Trazado 194563" d="M168.895,35.159c.114,1.368-.329,2.52-.988,2.576s-1.288-1.009-1.4-2.376.329-2.521.989-2.576,1.287,1.008,1.4,2.376" transform="translate(-14.702 -2.895)" fill="#001e6c"/>
            <path id="Trazado_194564" data-name="Trazado 194564" d="M164.494,30.142s3.585-2.537,6.191-.035" transform="translate(-14.526 -2.561)" fill="none" stroke="#001e6c" stroke-linecap="round" stroke-linejoin="round" stroke-width="1"/>
            <path id="Trazado_194565" data-name="Trazado 194565" d="M163.914,44.145a6.512,6.512,0,0,0,4.15,3.261" transform="translate(-14.475 -3.898)" fill="none" stroke="#001e6c" stroke-linecap="round" stroke-linejoin="round" stroke-width="1"/>
            <path id="Trazado_194566" data-name="Trazado 194566" d="M154.924,60.441,150.163,58.5l.194,7.36Z" transform="translate(-13.261 -5.167)" fill="#001e6c"/>
            <path id="Trazado_194567" data-name="Trazado 194567" d="M154.924,60.441,150.163,58.5l.194,7.36Z" transform="translate(-13.261 -5.167)" fill="none" stroke="#104469" stroke-linecap="round" stroke-linejoin="round" stroke-width="1"/>
            <path id="Trazado_194568" data-name="Trazado 194568" d="M78.121,48.5s-8.286,4.021-13.175,8.21-39.8,29.1-39.337,32.122,28.506,43.487,28.506,43.487l5.477-7.408L50.515,91.86,70.067,81.618Z" transform="translate(-2.261 -4.283)" fill="#79dae1"/>
            <path id="Trazado_194569" data-name="Trazado 194569" d="M78.121,48.5s-8.286,4.021-13.175,8.21-39.8,29.1-39.337,32.122,28.506,43.487,28.506,43.487l5.477-7.408L50.515,91.86,70.067,81.618Z" transform="translate(-2.261 -4.283)" fill="none" stroke="#104469" stroke-linecap="round" stroke-linejoin="round" stroke-width="1"/>
            <path id="Trazado_194570" data-name="Trazado 194570" d="M43.737,99.784l8.379-3.724L44.2,103.974" transform="translate(-3.862 -8.483)" fill="none" stroke="#001e6c" stroke-linecap="round" stroke-linejoin="round" stroke-width="1"/>
            <path id="Trazado_194571" data-name="Trazado 194571" d="M143.212,73.053s-3.459-9.968-5.9-11.8S119,50.064,115.341,50.064s-6.917,3.052-6.917,3.052,16.616,9.115,21.5,12.573a106.806,106.806,0,0,0,13.289,7.364" transform="translate(-9.575 -4.421)" fill="#d9fcff"/>
            <path id="Trazado_194572" data-name="Trazado 194572" d="M143.212,73.053s-3.459-9.968-5.9-11.8S119,50.064,115.341,50.064s-6.917,3.052-6.917,3.052,16.616,9.115,21.5,12.573A106.806,106.806,0,0,0,143.212,73.053Z" transform="translate(-9.575 -4.421)" fill="none" stroke="#104469" stroke-linecap="round" stroke-linejoin="round" stroke-width="1"/>
            <path id="Trazado_194573" data-name="Trazado 194573" d="M45.782,170.148v78.06L3.931,331.574S-1.01,337.5.967,341.455s10.455,6.818,18.95,2.957c3.148-1.431,8.717,2.972,14.151,1.49s9.962-3.756,7.986-8.7c-.891-2.227-6.1-2.442-8.751-3.347-3.231-1.1-3.9-2.638-3.9-2.638s4.972-5.529,4.972-8.987-.988-2.965,0-5.929,33.146-46.851,36.11-52.285,8.4-13.34,9.388-17.292,7.41-36.561,7.41-36.561Z" transform="translate(-0.044 -15.026)" fill="#104469"/>
            <path id="Trazado_194574" data-name="Trazado 194574" d="M45.782,170.148v78.06L3.931,331.574S-1.01,337.5.967,341.455s10.455,6.818,18.95,2.957c3.148-1.431,8.717,2.972,14.151,1.49s9.962-3.756,7.986-8.7c-.891-2.227-6.1-2.442-8.751-3.347-3.231-1.1-3.9-2.638-3.9-2.638s4.972-5.529,4.972-8.987-.988-2.965,0-5.929,33.146-46.851,36.11-52.285,8.4-13.34,9.388-17.292,7.41-36.561,7.41-36.561Z" transform="translate(-0.044 -15.026)" fill="none" stroke="#001e6c" stroke-linecap="round" stroke-linejoin="round" stroke-width="1"/>
            <path id="Trazado_194575" data-name="Trazado 194575" d="M59.55,138.176s-9.1,26.647-9.387,29.149c-1.342,11.508,27.791,39.292,27.791,39.292l32.827,44.192,13.489,78.565.053,13.675a4.422,4.422,0,0,0,3.9,3.973c3.823.439,14.1.178,16.66.178,3.953,0,14.711-1.95,16.622-2.293,1.459-.263,4.446-3.459,3.459-5.929s-8.085-3.183-10.556-4.17a41.637,41.637,0,0,1-9.172-5.8c-.668-.669-.232-3.386-.212-5.576a13.116,13.116,0,0,0-2.375-7.734,10.1,10.1,0,0,1-1.75-6c0-6.422-.968-72.721-1.956-76.179s-33.444-62.24-33.444-62.24l-1.613-13.136Z" transform="translate(-4.426 -12.202)" fill="#104469"/>
            <path id="Trazado_194576" data-name="Trazado 194576" d="M59.55,138.176s-9.1,26.647-9.387,29.149c-1.342,11.508,27.791,39.292,27.791,39.292l32.827,44.192,13.489,78.565.053,13.675a4.422,4.422,0,0,0,3.9,3.973c3.823.439,14.1.178,16.66.178,3.953,0,14.711-1.95,16.622-2.293,1.459-.263,4.446-3.459,3.459-5.929s-8.085-3.183-10.556-4.17a41.637,41.637,0,0,1-9.172-5.8c-.668-.669-.232-3.386-.212-5.576a13.116,13.116,0,0,0-2.375-7.734,10.1,10.1,0,0,1-1.75-6c0-6.422-.968-72.721-1.956-76.179s-33.444-62.24-33.444-62.24l-1.613-13.136Z" transform="translate(-4.426 -12.202)" fill="none" stroke="#001e6c" stroke-linecap="round" stroke-linejoin="round" stroke-width="1"/>
            <path id="Trazado_194577" data-name="Trazado 194577" d="M127.412,101.345l-5.323,53.235,5.323,12.929,5.323-9.126L131.215,94.5" transform="translate(-10.782 -8.345)" fill="#d9fcff"/>
            <path id="Trazado_194578" data-name="Trazado 194578" d="M127.412,101.345l-5.323,53.235,5.323,12.929,5.323-9.126L131.215,94.5" transform="translate(-10.782 -8.345)" fill="none" stroke="#104469" stroke-linecap="round" stroke-linejoin="round" stroke-width="1"/>
            <path id="Trazado_194579" data-name="Trazado 194579" d="M103.872,52.976S83.324,48.094,80.882,48.5s-7.12,26.854-9.968,39.264-14.241,42.113-14.037,44.553,4.272,4.273,5.493,4.68,39.264,13.02,42.112,13.223a4.068,4.068,0,0,0,4.476-3.051c.2-1.221.407-3.662.813-4.272s17.7-35.806,17.7-35.806,56.76,10.172,57.777,9.765,28.278-54.928,28.278-54.928l-7.73-5.494L173.448,91.223,138.66,72.913l-33.568-19.53" transform="translate(-5.023 -4.281)" fill="#79dae1"/>
            <path id="Trazado_194580" data-name="Trazado 194580" d="M103.872,52.976S83.324,48.094,80.882,48.5s-7.12,26.854-9.968,39.264-14.241,42.113-14.037,44.553,4.272,4.273,5.493,4.68,39.264,13.02,42.112,13.223a4.068,4.068,0,0,0,4.476-3.051c.2-1.221.407-3.662.813-4.272s17.7-35.806,17.7-35.806,56.76,10.172,57.777,9.765,28.278-54.928,28.278-54.928l-7.73-5.494L173.448,91.223,138.66,72.913l-33.568-19.53" transform="translate(-5.023 -4.281)" fill="none" stroke="#104469" stroke-linecap="round" stroke-linejoin="round" stroke-width="1"/>
            <line id="Línea_136" data-name="Línea 136" x1="15.055" y1="0.814" transform="translate(107.393 101.997)" fill="none" stroke="#001e6c" stroke-linecap="round" stroke-linejoin="round" stroke-width="1"/>
            <line id="Línea_137" data-name="Línea 137" x1="33.793" y2="5.509" transform="translate(80.336 104.828)" fill="none" stroke="#001e6c" stroke-linecap="round" stroke-linejoin="round" stroke-width="1"/>
            <line id="Línea_138" data-name="Línea 138" x1="1.409" y2="0.23" transform="translate(116.36 104.235)" fill="none" stroke="#001e6c" stroke-linecap="round" stroke-linejoin="round" stroke-width="1"/>
            <path id="Trazado_194581" data-name="Trazado 194581" d="M98.438,133.188a45.2,45.2,0,0,1-4.742,1.729" transform="translate(-8.274 -11.762)" fill="none" stroke="#001e6c" stroke-linecap="round" stroke-linejoin="round" stroke-width="1"/>
            <path id="Trazado_194582" data-name="Trazado 194582" d="M121.705,119.91a213.23,213.23,0,0,1-19.54,10.781" transform="translate(-9.022 -10.589)" fill="none" stroke="#001e6c" stroke-linecap="round" stroke-linejoin="round" stroke-width="1"/>
            <path id="Trazado_194583" data-name="Trazado 194583" d="M185.154,97.149a71.642,71.642,0,0,1-2.645,6.714" transform="translate(-16.117 -8.579)" fill="none" stroke="#001e6c" stroke-linecap="round" stroke-linejoin="round" stroke-width="1"/>
            <line id="Línea_139" data-name="Línea 139" x2="8.952" y2="6.51" transform="translate(195.89 57.443)" fill="none" stroke="#001e6c" stroke-linecap="round" stroke-linejoin="round" stroke-width="1"/>
            <path id="Trazado_194584" data-name="Trazado 194584" d="M219.711,40.4s1.45-8.706,1.693-9.189,6.045-3.869,6.65-3.506a1.471,1.471,0,0,1,.484,2.176,20.118,20.118,0,0,1-3.265,3.265Z" transform="translate(-19.402 -2.444)" fill="#fff"/>
            <path id="Trazado_194585" data-name="Trazado 194585" d="M219.711,40.4s1.45-8.706,1.693-9.189,6.045-3.869,6.65-3.506a1.471,1.471,0,0,1,.484,2.176,20.118,20.118,0,0,1-3.265,3.265Z" transform="translate(-19.402 -2.444)" fill="none" stroke="#104469" stroke-linecap="round" stroke-linejoin="round" stroke-width="1"/>
            <path id="Trazado_194586" data-name="Trazado 194586" d="M220.176,54.694l-.464-14.2,4.111-4.959s6.287-6.771,7.376-6.771a3.6,3.6,0,0,1,2.781,1.331,13.732,13.732,0,0,1,.363,2.539s5.078,8.585,5.683,10.157-.846,8.343-3.144,10.639-8.974,6.756-8.974,6.756Z" transform="translate(-19.403 -2.54)" fill="#fff"/>
            <path id="Trazado_194587" data-name="Trazado 194587" d="M220.176,54.694l-.464-14.2,4.111-4.959s6.287-6.771,7.376-6.771a3.6,3.6,0,0,1,2.781,1.331,13.732,13.732,0,0,1,.363,2.539s5.078,8.585,5.683,10.157-.846,8.343-3.144,10.639-8.974,6.756-8.974,6.756Z" transform="translate(-19.403 -2.54)" fill="none" stroke="#104469" stroke-linecap="round" stroke-linejoin="round" stroke-width="1"/>
            <path id="Trazado_194588" data-name="Trazado 194588" d="M229.183,29.826,215.953,32.1a1.525,1.525,0,1,0,.576,2.994l9.025-2Z" transform="translate(-18.959 -2.634)" fill="#fff"/>
            <path id="Trazado_194589" data-name="Trazado 194589" d="M229.183,29.826,215.953,32.1a1.525,1.525,0,1,0,.576,2.994l9.025-2Z" transform="translate(-18.959 -2.634)" fill="none" stroke="#104469" stroke-linecap="round" stroke-linejoin="round" stroke-width="1"/>
          </g>
        </g>
      </g>
      <g id="Icon_feather-rotate-ccw" data-name="Icon feather-rotate-ccw" transform="translate(891.5 2929.486)">
        <path id="Trazado_194131" data-name="Trazado 194131" d="M1.5,6v9h9" fill="none" stroke="#fff" stroke-linecap="round" stroke-linejoin="round" stroke-width="3"/>
        <path id="Trazado_194132" data-name="Trazado 194132" d="M5.265,22.5A13.5,13.5,0,1,0,8.46,8.46L1.5,15" fill="none" stroke="#fff" stroke-linecap="round" stroke-linejoin="round" stroke-width="3"/>
      </g>
    </g>
    <g id="impuestos" transform="translate(782 2848.152)">
      <g id="Grupo_146164" data-name="Grupo 146164" transform="translate(25.142 12.571)">
        <path id="Trazado_194705" data-name="Trazado 194705" d="M407.537,317.934h.484v-.016C407.86,317.928,407.7,317.934,407.537,317.934Z" transform="translate(-352.631 -268.044)" fill="#fff"/>
        <path id="Trazado_194706" data-name="Trazado 194706" d="M174.958,105.943V64H128v49.89h54.906A7.948,7.948,0,0,1,174.958,105.943Z" transform="translate(-128 -64)" fill="#fff"/>
      </g>
      <path id="Trazado_194707" data-name="Trazado 194707" d="M128,20.607h46.958V62.549a7.948,7.948,0,0,0,7.948,7.948h0a7.948,7.948,0,0,0,7.948-7.948V10H143.9V20.312" transform="translate(-102.858 -8.036)" fill="#c9f3ff"/>
      <path id="Trazado_194708" data-name="Trazado 194708" d="M53.6,178H14.714A4.714,4.714,0,0,0,10,182.714v54.212a4.714,4.714,0,0,0,4.714,4.714H53.6a4.714,4.714,0,0,0,4.714-4.714V182.714A4.714,4.714,0,0,0,53.6,178Z" transform="translate(-8.036 -143.037)" fill="#d9fcff"/>
      <g id="Grupo_146165" data-name="Grupo 146165" transform="translate(9.821 42.819)">
        <path id="Trazado_194709" data-name="Trazado 194709" d="M80.985,229H51.62a1.621,1.621,0,0,1-1.62-1.62V219.62A1.621,1.621,0,0,1,51.62,218H80.985a1.621,1.621,0,0,1,1.62,1.62v7.759A1.621,1.621,0,0,1,80.985,229Z" transform="translate(-50 -218)" fill="#ade5ff"/>
        <rect id="Rectángulo_44608" data-name="Rectángulo 44608" width="33" height="29" transform="translate(0.179 19.028)" fill="#ade5ff"/>
      </g>
      <rect id="Rectángulo_44609" data-name="Rectángulo 44609" width="10.868" height="18.856" transform="translate(31.559 71.104)" fill="#ef9f14"/>
      <circle id="Elipse_1300" data-name="Elipse 1300" cx="17.5" cy="17.5" r="17.5" transform="translate(63 62.848)" fill="#ef9f14"/>
      <path id="Trazado_194710" data-name="Trazado 194710" d="M40,211.585v7.759a3.589,3.589,0,0,0,3.585,3.585H72.949a3.589,3.589,0,0,0,3.585-3.585v-7.759A3.589,3.589,0,0,0,72.949,208H43.585A3.589,3.589,0,0,0,40,211.585Zm3.928.344H72.606V219H43.928Z" transform="translate(-32.143 -167.145)" fill="#104469"/>
      <path id="Trazado_194711" data-name="Trazado 194711" d="M74.57,304H41.964A1.964,1.964,0,0,0,40,305.964v28.284a1.964,1.964,0,0,0,1.964,1.964H74.57a1.964,1.964,0,0,0,1.964-1.964V305.964A1.964,1.964,0,0,0,74.57,304Zm-1.964,9.428h-6.94v-5.5h6.94Zm-28.677,3.928h6.94v5.5h-6.94Zm10.868,0h6.94v5.5H54.8Zm6.94-3.928H54.8v-5.5h6.94Zm-17.809-5.5h6.94v5.5h-6.94Zm0,18.856h6.94v5.5h-6.94Zm10.868,0h6.94v5.5H54.8Zm17.809,5.5h-6.94V317.356h6.94Z" transform="translate(-32.143 -244.289)" fill="#104469"/>
      <path id="Trazado_194712" data-name="Trazado 194712" d="M439.964,108.71a1.965,1.965,0,1,0,1.389.576A1.979,1.979,0,0,0,439.964,108.71Z" transform="translate(-351.969 -87.357)"/>
      <path id="Trazado_194713" data-name="Trazado 194713" d="M384.408,357.415a2.159,2.159,0,0,1,2.327,1.93,1.964,1.964,0,1,0,3.928,0,5.917,5.917,0,0,0-4.291-5.561v-.1a1.964,1.964,0,0,0-3.928,0v.1a5.918,5.918,0,0,0-4.291,5.561,6.074,6.074,0,0,0,6.256,5.859,1.964,1.964,0,1,1-2.327,1.93,1.964,1.964,0,1,0-3.928,0,5.918,5.918,0,0,0,4.294,5.562,1.962,1.962,0,0,0,3.924,0,5.918,5.918,0,0,0,4.294-5.562,6.074,6.074,0,0,0-6.256-5.859,1.964,1.964,0,1,1,0-3.861Z" transform="translate(-303.876 -282.634)" fill="#104469"/>
      <path id="Trazado_194714" data-name="Trazado 194714" d="M87,61.569a9.881,9.881,0,0,0,2.959-7.056V31.427a1.964,1.964,0,0,0-3.928,0V54.513a5.984,5.984,0,1,1-11.967,0V12.571A1.964,1.964,0,0,0,72.1,10.607H43V3.928h43.03v11.54a1.964,1.964,0,0,0,3.928,0V1.964A1.964,1.964,0,0,0,88,0H41.037a1.964,1.964,0,0,0-1.964,1.964v8.642H25.142a1.964,1.964,0,0,0-1.964,1.964V33H6.678A6.686,6.686,0,0,0,0,39.677V93.888a6.686,6.686,0,0,0,6.678,6.678H45.569a6.686,6.686,0,0,0,6.678-6.678V64.425h8.315a1.964,1.964,0,0,0,0-3.928H52.247V39.677A6.686,6.686,0,0,0,45.569,33H27.106V14.535h43.03V54.513a9.888,9.888,0,0,0,3.227,7.311A20.033,20.033,0,1,0,87,61.569ZM48.319,39.677V93.888a2.753,2.753,0,0,1-2.75,2.75H6.678a2.753,2.753,0,0,1-2.75-2.75V39.677a2.753,2.753,0,0,1,2.75-2.75H45.569A2.753,2.753,0,0,1,48.319,39.677ZM80.532,96.638A16.106,16.106,0,1,1,96.638,80.532,16.125,16.125,0,0,1,80.532,96.638Z" fill="#104469"/>
      <path id="Trazado_194715" data-name="Trazado 194715" d="M262.964,149.928h9.2a1.964,1.964,0,0,0,0-3.928h-9.2a1.964,1.964,0,0,0,0,3.928Z" transform="translate(-209.735 -117.323)" fill="#104469"/>
      <path id="Trazado_194716" data-name="Trazado 194716" d="M226.88,99.964A1.964,1.964,0,0,0,224.916,98H203.964a1.964,1.964,0,0,0,0,3.928h20.951A1.964,1.964,0,0,0,226.88,99.964Z" transform="translate(-162.323 -78.751)" fill="#104469"/>
      <path id="Trazado_194717" data-name="Trazado 194717" d="M163.076,98.576A1.963,1.963,0,1,0,164.464,98,1.979,1.979,0,0,0,163.076,98.576Z" transform="translate(-130.582 -78.751)" fill="#104469"/>
      <path id="Trazado_194718" data-name="Trazado 194718" d="M285.826,194h-5.862a1.964,1.964,0,1,0,0,3.928h5.862a1.964,1.964,0,1,0,0-3.928Z" transform="translate(-223.396 -155.895)" fill="#104469"/>
      <path id="Trazado_194719" data-name="Trazado 194719" d="M279.964,245.928h5.862a1.964,1.964,0,1,0,0-3.928h-5.862a1.964,1.964,0,1,0,0,3.928Z" transform="translate(-223.396 -194.467)" fill="#104469"/>
    </g>
  </g>
</svg>
