<svg xmlns="http://www.w3.org/2000/svg" xmlns:xlink="http://www.w3.org/1999/xlink" width="399" height="498" viewBox="0 0 399 498">
  <defs>
    <clipPath id="clip-path">
      <rect id="Rectángulo_44603" data-name="Rectángulo 44603" width="224.044" height="372.613" fill="#ace6eb"/>
    </clipPath>
    <clipPath id="clip-path-2">
      <rect id="Rectángulo_44599" data-name="Rectángulo 44599" width="232" height="320" transform="translate(211 2747.158)" fill="#fff" stroke="#707070" stroke-width="1"/>
    </clipPath>
    <clipPath id="clip-path-3">
      <rect id="Rectángulo_44598" data-name="Rectángulo 44598" width="221.215" height="335.531" fill="none"/>
    </clipPath>
  </defs>
  <g id="Grupo_146376" data-name="Grupo 146376" transform="translate(-601 -2560)">
    <rect id="Rectángulo_44596" data-name="Rectángulo 44596" width="399" height="498" rx="8" transform="translate(601 2560)" fill="#b0eef4"/>
    <text id="No_responsables_de_IVA:" data-name="No responsables 
de IVA:" transform="translate(638 2635)" fill="#12263f" font-size="24" font-family="Roboto-Black, Roboto" font-weight="800"><tspan x="0" y="0">No responsables </tspan><tspan x="0" y="30">de IVA:</tspan></text>
    <g id="Grupo_146162" data-name="Grupo 146162">
      <g id="Grupo_146150" data-name="Grupo 146150" transform="translate(714 2685.387)">
        <g id="Grupo_146149" data-name="Grupo 146149" clip-path="url(#clip-path)">
          <path id="Trazado_194635" data-name="Trazado 194635" d="M147.773,109.862S163.889,80.2,192.139,78.28c16.078-1.094,34.589,2.256,31.58,6.016s-24.813,36.093-75.946,25.566" fill="#ace6eb"/>
          <path id="Trazado_194636" data-name="Trazado 194636" d="M146.091,109.862s-5.679-33.272-31.8-44.211c-14.865-6.227-33.466-9.03-31.833-4.5s11.836,42.171,63.629,48.712" fill="#ace6eb"/>
          <path id="Trazado_194637" data-name="Trazado 194637" d="M147.6,78.751s16.48-29.457,3.03-54.373C142.975,10.2,130.262-3.669,128.688.881S111.409,41.129,147.6,78.751" fill="#ace6eb"/>
          <path id="Trazado_194638" data-name="Trazado 194638" d="M142.725,155.856S158.84,126.2,187.09,124.274c16.079-1.094,34.589,2.256,31.581,6.016s-24.814,36.093-75.946,25.566" fill="#ace6eb"/>
          <path id="Trazado_194639" data-name="Trazado 194639" d="M142.164,155.856s-8.875-32.566-35.929-40.923c-15.4-4.757-34.184-5.746-32.119-1.4s15.865,40.826,68.048,42.319" fill="#ace6eb"/>
          <path id="Trazado_194640" data-name="Trazado 194640" d="M134.987,200.689s21.1-26.342,49.25-23.24c16.019,1.766,33.646,8.336,30.02,11.5s-30.805,31.137-79.27,11.735" fill="#ace6eb"/>
          <path id="Trazado_194641" data-name="Trazado 194641" d="M133.994,200.338s-11.147-31.859-38.723-38.291c-15.7-3.66-34.5-3.323-32.138.871s18.7,39.607,70.861,37.42" fill="#ace6eb"/>
          <path id="Trazado_194642" data-name="Trazado 194642" d="M124.215,241.674s24.5-23.223,51.956-16.318c15.63,3.93,32.2,12.839,28.174,15.484s-34.756,26.654-80.13.834" fill="#ace6eb"/>
          <path id="Trazado_194643" data-name="Trazado 194643" d="M124.023,241.594s-13.713-30.842-41.721-35c-15.942-2.366-34.66-.494-31.96,3.493s21.875,37.947,73.681,31.506" fill="#ace6eb"/>
          <path id="Trazado_194644" data-name="Trazado 194644" d="M112.437,274.207s27.677-19.32,53.805-8.406c14.871,6.211,29.929,17.487,25.557,19.5s-38.336,21.185-79.362-11.1" fill="#ace6eb"/>
          <path id="Trazado_194645" data-name="Trazado 194645" d="M109.632,274.207s-11.675-31.67-39.353-37.643c-15.754-3.4-34.554-2.75-32.119,1.4s19.357,39.291,71.472,36.239" fill="#ace6eb"/>
          <path id="Trazado_194646" data-name="Trazado 194646" d="M95.609,307.3s-11.675-31.67-39.353-37.643c-15.754-3.4-34.554-2.75-32.119,1.4S43.494,310.352,95.609,307.3" fill="#ace6eb"/>
          <path id="Trazado_194647" data-name="Trazado 194647" d="M71.686,344.052s-11.675-31.67-39.353-37.643c-15.754-3.4-34.554-2.75-32.119,1.4S19.571,347.1,71.686,344.052" fill="#ace6eb"/>
          <path id="Trazado_194648" data-name="Trazado 194648" d="M96.731,307.3s27.677-19.32,53.8-8.406c14.871,6.211,29.929,17.487,25.557,19.5s-38.336,21.185-79.362-11.1" fill="#ace6eb"/>
          <path id="Trazado_194649" data-name="Trazado 194649" d="M72.612,344.881s27.677-19.32,53.805-8.406c14.871,6.211,29.929,17.487,25.557,19.5s-38.336,21.185-79.362-11.1" fill="#ace6eb"/>
          <path id="Trazado_194650" data-name="Trazado 194650" d="M50.737,372.613a1.37,1.37,0,0,1-1.012-2.293C74.3,343.388,94.649,310.773,110.2,273.383c12.451-29.939,21.875-62.99,28.009-98.234,10.448-60.05,7.666-106.247,7.636-106.707a1.369,1.369,0,1,1,2.733-.174c.03.462,2.834,46.924-7.66,107.279-6.164,35.455-15.642,68.712-28.174,98.848-15.675,37.7-36.2,70.6-61,97.771a1.371,1.371,0,0,1-1.013.447" fill="#ace6eb"/>
        </g>
      </g>
      <g id="Enmascarar_grupo_143957" data-name="Enmascarar grupo 143957" transform="translate(404 -9.158)" clip-path="url(#clip-path-2)">
        <g id="Grupo_146144" data-name="Grupo 146144" transform="translate(210.571 2764.551)">
          <g id="Grupo_146143" data-name="Grupo 146143" clip-path="url(#clip-path-3)">
            <path id="Trazado_194559" data-name="Trazado 194559" d="M166.955,19.4s2.319,6.122,2.057,8.493-1.535,3.593-.559,5.285,4.639,5.511,4.447,6.8-4.37,2.92-4.37,2.92-3,12.837-4.44,14.1-11.781-1.684-11.781-1.684l-11.066,13.1L124.967,50.091l4.078-4.42s-6.757-12.218-8.247-18.557,3.98-21.241,16.895-25.348,29.744,2.628,33.092,7.948-2.46,9.5-3.829,9.688" transform="translate(-10.646 -0.044)" fill="#fff"/>
            <path id="Trazado_194560" data-name="Trazado 194560" d="M166.955,19.4s2.319,6.122,2.057,8.493-1.535,3.593-.559,5.285,4.639,5.511,4.447,6.8-4.37,2.92-4.37,2.92-3,12.837-4.44,14.1-11.781-1.684-11.781-1.684l-11.066,13.1L124.967,50.091l4.078-4.42s-6.757-12.218-8.247-18.557,3.98-21.241,16.895-25.348,29.744,2.628,33.092,7.948S168.324,19.219,166.955,19.4Z" transform="translate(-10.646 -0.044)" fill="none" stroke="#104469" stroke-linecap="round" stroke-linejoin="round" stroke-width="1"/>
            <path id="Trazado_194561" data-name="Trazado 194561" d="M170.784,9.714c-3.348-5.32-20.178-12.053-33.093-7.948S119.307,20.775,120.8,27.114s8.247,18.557,8.247,18.557,7.63,2.068,9.784,1.5,9.793-4.525,9.793-4.525a16.63,16.63,0,0,1-3.366,0c-2-.183-3-3.994-3.627-7.727s3.183-4.734,4.927-4.838,1.744,3.261,2.59,4.455,3.078.253,3.4-.54-.88-7.387-.88-7.387,4.823-3.217,4.718-4.961-1.936-5.336-1.936-5.336l12.5,3.088c1.369-.183,7.177-4.368,3.829-9.688" transform="translate(-10.646 -0.044)" fill="#1a878e"/>
            <path id="Trazado_194562" data-name="Trazado 194562" d="M170.784,9.714c-3.348-5.32-20.178-12.053-33.093-7.948S119.307,20.775,120.8,27.114s8.247,18.557,8.247,18.557,7.63,2.068,9.784,1.5,9.793-4.525,9.793-4.525a16.63,16.63,0,0,1-3.366,0c-2-.183-3-3.994-3.627-7.727s3.183-4.734,4.927-4.838,1.744,3.261,2.59,4.455,3.078.253,3.4-.54-.88-7.387-.88-7.387,4.823-3.217,4.718-4.961-1.936-5.336-1.936-5.336l12.5,3.088C168.324,19.219,174.132,15.034,170.784,9.714Z" transform="translate(-10.646 -0.044)" fill="none" stroke="#104469" stroke-linecap="round" stroke-linejoin="round" stroke-width="1"/>
            <path id="Trazado_194563" data-name="Trazado 194563" d="M168.895,35.159c.114,1.368-.329,2.52-.988,2.576s-1.288-1.009-1.4-2.376.329-2.521.989-2.576,1.287,1.008,1.4,2.376" transform="translate(-14.702 -2.895)" fill="#001e6c"/>
            <path id="Trazado_194564" data-name="Trazado 194564" d="M164.494,30.142s3.585-2.537,6.191-.035" transform="translate(-14.526 -2.561)" fill="none" stroke="#001e6c" stroke-linecap="round" stroke-linejoin="round" stroke-width="1"/>
            <path id="Trazado_194565" data-name="Trazado 194565" d="M163.914,44.145a6.512,6.512,0,0,0,4.15,3.261" transform="translate(-14.475 -3.898)" fill="none" stroke="#001e6c" stroke-linecap="round" stroke-linejoin="round" stroke-width="1"/>
            <path id="Trazado_194566" data-name="Trazado 194566" d="M154.924,60.441,150.163,58.5l.194,7.36Z" transform="translate(-13.261 -5.167)" fill="#001e6c"/>
            <path id="Trazado_194567" data-name="Trazado 194567" d="M154.924,60.441,150.163,58.5l.194,7.36Z" transform="translate(-13.261 -5.167)" fill="none" stroke="#104469" stroke-linecap="round" stroke-linejoin="round" stroke-width="1"/>
            <path id="Trazado_194568" data-name="Trazado 194568" d="M78.121,48.5s-8.286,4.021-13.175,8.21-39.8,29.1-39.337,32.122,28.506,43.487,28.506,43.487l5.477-7.408L50.515,91.86,70.067,81.618Z" transform="translate(-2.261 -4.283)" fill="#79dae1"/>
            <path id="Trazado_194569" data-name="Trazado 194569" d="M78.121,48.5s-8.286,4.021-13.175,8.21-39.8,29.1-39.337,32.122,28.506,43.487,28.506,43.487l5.477-7.408L50.515,91.86,70.067,81.618Z" transform="translate(-2.261 -4.283)" fill="none" stroke="#104469" stroke-linecap="round" stroke-linejoin="round" stroke-width="1"/>
            <path id="Trazado_194570" data-name="Trazado 194570" d="M43.737,99.784l8.379-3.724L44.2,103.974" transform="translate(-3.862 -8.483)" fill="none" stroke="#001e6c" stroke-linecap="round" stroke-linejoin="round" stroke-width="1"/>
            <path id="Trazado_194571" data-name="Trazado 194571" d="M143.212,73.053s-3.459-9.968-5.9-11.8S119,50.064,115.341,50.064s-6.917,3.052-6.917,3.052,16.616,9.115,21.5,12.573a106.806,106.806,0,0,0,13.289,7.364" transform="translate(-9.575 -4.421)" fill="#d9fcff"/>
            <path id="Trazado_194572" data-name="Trazado 194572" d="M143.212,73.053s-3.459-9.968-5.9-11.8S119,50.064,115.341,50.064s-6.917,3.052-6.917,3.052,16.616,9.115,21.5,12.573A106.806,106.806,0,0,0,143.212,73.053Z" transform="translate(-9.575 -4.421)" fill="none" stroke="#104469" stroke-linecap="round" stroke-linejoin="round" stroke-width="1"/>
            <path id="Trazado_194573" data-name="Trazado 194573" d="M45.782,170.148v78.06L3.931,331.574S-1.01,337.5.967,341.455s10.455,6.818,18.95,2.957c3.148-1.431,8.717,2.972,14.151,1.49s9.962-3.756,7.986-8.7c-.891-2.227-6.1-2.442-8.751-3.347-3.231-1.1-3.9-2.638-3.9-2.638s4.972-5.529,4.972-8.987-.988-2.965,0-5.929,33.146-46.851,36.11-52.285,8.4-13.34,9.388-17.292,7.41-36.561,7.41-36.561Z" transform="translate(-0.044 -15.026)" fill="#104469"/>
            <path id="Trazado_194574" data-name="Trazado 194574" d="M45.782,170.148v78.06L3.931,331.574S-1.01,337.5.967,341.455s10.455,6.818,18.95,2.957c3.148-1.431,8.717,2.972,14.151,1.49s9.962-3.756,7.986-8.7c-.891-2.227-6.1-2.442-8.751-3.347-3.231-1.1-3.9-2.638-3.9-2.638s4.972-5.529,4.972-8.987-.988-2.965,0-5.929,33.146-46.851,36.11-52.285,8.4-13.34,9.388-17.292,7.41-36.561,7.41-36.561Z" transform="translate(-0.044 -15.026)" fill="none" stroke="#001e6c" stroke-linecap="round" stroke-linejoin="round" stroke-width="1"/>
            <path id="Trazado_194575" data-name="Trazado 194575" d="M59.55,138.176s-9.1,26.647-9.387,29.149c-1.342,11.508,27.791,39.292,27.791,39.292l32.827,44.192,13.489,78.565.053,13.675a4.422,4.422,0,0,0,3.9,3.973c3.823.439,14.1.178,16.66.178,3.953,0,14.711-1.95,16.622-2.293,1.459-.263,4.446-3.459,3.459-5.929s-8.085-3.183-10.556-4.17a41.637,41.637,0,0,1-9.172-5.8c-.668-.669-.232-3.386-.212-5.576a13.116,13.116,0,0,0-2.375-7.734,10.1,10.1,0,0,1-1.75-6c0-6.422-.968-72.721-1.956-76.179s-33.444-62.24-33.444-62.24l-1.613-13.136Z" transform="translate(-4.426 -12.202)" fill="#104469"/>
            <path id="Trazado_194576" data-name="Trazado 194576" d="M59.55,138.176s-9.1,26.647-9.387,29.149c-1.342,11.508,27.791,39.292,27.791,39.292l32.827,44.192,13.489,78.565.053,13.675a4.422,4.422,0,0,0,3.9,3.973c3.823.439,14.1.178,16.66.178,3.953,0,14.711-1.95,16.622-2.293,1.459-.263,4.446-3.459,3.459-5.929s-8.085-3.183-10.556-4.17a41.637,41.637,0,0,1-9.172-5.8c-.668-.669-.232-3.386-.212-5.576a13.116,13.116,0,0,0-2.375-7.734,10.1,10.1,0,0,1-1.75-6c0-6.422-.968-72.721-1.956-76.179s-33.444-62.24-33.444-62.24l-1.613-13.136Z" transform="translate(-4.426 -12.202)" fill="none" stroke="#001e6c" stroke-linecap="round" stroke-linejoin="round" stroke-width="1"/>
            <path id="Trazado_194577" data-name="Trazado 194577" d="M127.412,101.345l-5.323,53.235,5.323,12.929,5.323-9.126L131.215,94.5" transform="translate(-10.782 -8.345)" fill="#d9fcff"/>
            <path id="Trazado_194578" data-name="Trazado 194578" d="M127.412,101.345l-5.323,53.235,5.323,12.929,5.323-9.126L131.215,94.5" transform="translate(-10.782 -8.345)" fill="none" stroke="#104469" stroke-linecap="round" stroke-linejoin="round" stroke-width="1"/>
            <path id="Trazado_194579" data-name="Trazado 194579" d="M103.872,52.976S83.324,48.094,80.882,48.5s-7.12,26.854-9.968,39.264-14.241,42.113-14.037,44.553,4.272,4.273,5.493,4.68,39.264,13.02,42.112,13.223a4.068,4.068,0,0,0,4.476-3.051c.2-1.221.407-3.662.813-4.272s17.7-35.806,17.7-35.806,56.76,10.172,57.777,9.765,28.278-54.928,28.278-54.928l-7.73-5.494L173.448,91.223,138.66,72.913l-33.568-19.53" transform="translate(-5.023 -4.281)" fill="#79dae1"/>
            <path id="Trazado_194580" data-name="Trazado 194580" d="M103.872,52.976S83.324,48.094,80.882,48.5s-7.12,26.854-9.968,39.264-14.241,42.113-14.037,44.553,4.272,4.273,5.493,4.68,39.264,13.02,42.112,13.223a4.068,4.068,0,0,0,4.476-3.051c.2-1.221.407-3.662.813-4.272s17.7-35.806,17.7-35.806,56.76,10.172,57.777,9.765,28.278-54.928,28.278-54.928l-7.73-5.494L173.448,91.223,138.66,72.913l-33.568-19.53" transform="translate(-5.023 -4.281)" fill="none" stroke="#104469" stroke-linecap="round" stroke-linejoin="round" stroke-width="1"/>
            <line id="Línea_136" data-name="Línea 136" x1="15.055" y1="0.814" transform="translate(107.393 101.997)" fill="none" stroke="#001e6c" stroke-linecap="round" stroke-linejoin="round" stroke-width="1"/>
            <line id="Línea_137" data-name="Línea 137" x1="33.793" y2="5.509" transform="translate(80.336 104.828)" fill="none" stroke="#001e6c" stroke-linecap="round" stroke-linejoin="round" stroke-width="1"/>
            <line id="Línea_138" data-name="Línea 138" x1="1.409" y2="0.23" transform="translate(116.36 104.235)" fill="none" stroke="#001e6c" stroke-linecap="round" stroke-linejoin="round" stroke-width="1"/>
            <path id="Trazado_194581" data-name="Trazado 194581" d="M98.438,133.188a45.2,45.2,0,0,1-4.742,1.729" transform="translate(-8.274 -11.762)" fill="none" stroke="#001e6c" stroke-linecap="round" stroke-linejoin="round" stroke-width="1"/>
            <path id="Trazado_194582" data-name="Trazado 194582" d="M121.705,119.91a213.23,213.23,0,0,1-19.54,10.781" transform="translate(-9.022 -10.589)" fill="none" stroke="#001e6c" stroke-linecap="round" stroke-linejoin="round" stroke-width="1"/>
            <path id="Trazado_194583" data-name="Trazado 194583" d="M185.154,97.149a71.642,71.642,0,0,1-2.645,6.714" transform="translate(-16.117 -8.579)" fill="none" stroke="#001e6c" stroke-linecap="round" stroke-linejoin="round" stroke-width="1"/>
            <line id="Línea_139" data-name="Línea 139" x2="8.952" y2="6.51" transform="translate(195.89 57.443)" fill="none" stroke="#001e6c" stroke-linecap="round" stroke-linejoin="round" stroke-width="1"/>
            <path id="Trazado_194584" data-name="Trazado 194584" d="M219.711,40.4s1.45-8.706,1.693-9.189,6.045-3.869,6.65-3.506a1.471,1.471,0,0,1,.484,2.176,20.118,20.118,0,0,1-3.265,3.265Z" transform="translate(-19.402 -2.444)" fill="#fff"/>
            <path id="Trazado_194585" data-name="Trazado 194585" d="M219.711,40.4s1.45-8.706,1.693-9.189,6.045-3.869,6.65-3.506a1.471,1.471,0,0,1,.484,2.176,20.118,20.118,0,0,1-3.265,3.265Z" transform="translate(-19.402 -2.444)" fill="none" stroke="#104469" stroke-linecap="round" stroke-linejoin="round" stroke-width="1"/>
            <path id="Trazado_194586" data-name="Trazado 194586" d="M220.176,54.694l-.464-14.2,4.111-4.959s6.287-6.771,7.376-6.771a3.6,3.6,0,0,1,2.781,1.331,13.732,13.732,0,0,1,.363,2.539s5.078,8.585,5.683,10.157-.846,8.343-3.144,10.639-8.974,6.756-8.974,6.756Z" transform="translate(-19.403 -2.54)" fill="#fff"/>
            <path id="Trazado_194587" data-name="Trazado 194587" d="M220.176,54.694l-.464-14.2,4.111-4.959s6.287-6.771,7.376-6.771a3.6,3.6,0,0,1,2.781,1.331,13.732,13.732,0,0,1,.363,2.539s5.078,8.585,5.683,10.157-.846,8.343-3.144,10.639-8.974,6.756-8.974,6.756Z" transform="translate(-19.403 -2.54)" fill="none" stroke="#104469" stroke-linecap="round" stroke-linejoin="round" stroke-width="1"/>
            <path id="Trazado_194588" data-name="Trazado 194588" d="M229.183,29.826,215.953,32.1a1.525,1.525,0,1,0,.576,2.994l9.025-2Z" transform="translate(-18.959 -2.634)" fill="#fff"/>
            <path id="Trazado_194589" data-name="Trazado 194589" d="M229.183,29.826,215.953,32.1a1.525,1.525,0,1,0,.576,2.994l9.025-2Z" transform="translate(-18.959 -2.634)" fill="none" stroke="#104469" stroke-linecap="round" stroke-linejoin="round" stroke-width="1"/>
          </g>
        </g>
      </g>
      <g id="Icon_feather-rotate-ccw" data-name="Icon feather-rotate-ccw" transform="translate(936.5 2990.486)">
        <path id="Trazado_194131" data-name="Trazado 194131" d="M1.5,6v9h9" fill="none" stroke="#fff" stroke-linecap="round" stroke-linejoin="round" stroke-width="3"/>
        <path id="Trazado_194132" data-name="Trazado 194132" d="M5.265,22.5A13.5,13.5,0,1,0,8.46,8.46L1.5,15" fill="none" stroke="#fff" stroke-linecap="round" stroke-linejoin="round" stroke-width="3"/>
      </g>
    </g>
    <g id="impuestos" transform="translate(760 2848.152)">
      <g id="Grupo_146164" data-name="Grupo 146164" transform="translate(25.142 12.571)">
        <path id="Trazado_194705" data-name="Trazado 194705" d="M407.537,317.934h.484v-.016C407.86,317.928,407.7,317.934,407.537,317.934Z" transform="translate(-352.631 -268.044)" fill="#fff"/>
        <path id="Trazado_194706" data-name="Trazado 194706" d="M174.958,105.943V64H128v49.89h54.906A7.948,7.948,0,0,1,174.958,105.943Z" transform="translate(-128 -64)" fill="#fff"/>
      </g>
      <path id="Trazado_194707" data-name="Trazado 194707" d="M128,20.607h46.958V62.549a7.948,7.948,0,0,0,7.948,7.948h0a7.948,7.948,0,0,0,7.948-7.948V10H143.9V20.312" transform="translate(-102.858 -8.036)" fill="#c9f3ff"/>
      <path id="Trazado_194708" data-name="Trazado 194708" d="M53.6,178H14.714A4.714,4.714,0,0,0,10,182.714v54.212a4.714,4.714,0,0,0,4.714,4.714H53.6a4.714,4.714,0,0,0,4.714-4.714V182.714A4.714,4.714,0,0,0,53.6,178Z" transform="translate(-8.036 -143.037)" fill="#d9fcff"/>
      <g id="Grupo_146165" data-name="Grupo 146165" transform="translate(9.821 42.819)">
        <path id="Trazado_194709" data-name="Trazado 194709" d="M80.985,229H51.62a1.621,1.621,0,0,1-1.62-1.62V219.62A1.621,1.621,0,0,1,51.62,218H80.985a1.621,1.621,0,0,1,1.62,1.62v7.759A1.621,1.621,0,0,1,80.985,229Z" transform="translate(-50 -218)" fill="#ade5ff"/>
        <rect id="Rectángulo_44608" data-name="Rectángulo 44608" width="33" height="29" transform="translate(0.179 19.028)" fill="#ade5ff"/>
      </g>
      <rect id="Rectángulo_44609" data-name="Rectángulo 44609" width="10.868" height="18.856" transform="translate(31.559 71.104)" fill="#ef9f14"/>
      <circle id="Elipse_1300" data-name="Elipse 1300" cx="17.5" cy="17.5" r="17.5" transform="translate(63 62.848)" fill="#ef9f14"/>
      <path id="Trazado_194710" data-name="Trazado 194710" d="M40,211.585v7.759a3.589,3.589,0,0,0,3.585,3.585H72.949a3.589,3.589,0,0,0,3.585-3.585v-7.759A3.589,3.589,0,0,0,72.949,208H43.585A3.589,3.589,0,0,0,40,211.585Zm3.928.344H72.606V219H43.928Z" transform="translate(-32.143 -167.145)" fill="#104469"/>
      <path id="Trazado_194711" data-name="Trazado 194711" d="M74.57,304H41.964A1.964,1.964,0,0,0,40,305.964v28.284a1.964,1.964,0,0,0,1.964,1.964H74.57a1.964,1.964,0,0,0,1.964-1.964V305.964A1.964,1.964,0,0,0,74.57,304Zm-1.964,9.428h-6.94v-5.5h6.94Zm-28.677,3.928h6.94v5.5h-6.94Zm10.868,0h6.94v5.5H54.8Zm6.94-3.928H54.8v-5.5h6.94Zm-17.809-5.5h6.94v5.5h-6.94Zm0,18.856h6.94v5.5h-6.94Zm10.868,0h6.94v5.5H54.8Zm17.809,5.5h-6.94V317.356h6.94Z" transform="translate(-32.143 -244.289)" fill="#104469"/>
      <path id="Trazado_194712" data-name="Trazado 194712" d="M439.964,108.71a1.965,1.965,0,1,0,1.389.576A1.979,1.979,0,0,0,439.964,108.71Z" transform="translate(-351.969 -87.357)"/>
      <path id="Trazado_194713" data-name="Trazado 194713" d="M384.408,357.415a2.159,2.159,0,0,1,2.327,1.93,1.964,1.964,0,1,0,3.928,0,5.917,5.917,0,0,0-4.291-5.561v-.1a1.964,1.964,0,0,0-3.928,0v.1a5.918,5.918,0,0,0-4.291,5.561,6.074,6.074,0,0,0,6.256,5.859,1.964,1.964,0,1,1-2.327,1.93,1.964,1.964,0,1,0-3.928,0,5.918,5.918,0,0,0,4.294,5.562,1.962,1.962,0,0,0,3.924,0,5.918,5.918,0,0,0,4.294-5.562,6.074,6.074,0,0,0-6.256-5.859,1.964,1.964,0,1,1,0-3.861Z" transform="translate(-303.876 -282.634)" fill="#104469"/>
      <path id="Trazado_194714" data-name="Trazado 194714" d="M87,61.569a9.881,9.881,0,0,0,2.959-7.056V31.427a1.964,1.964,0,0,0-3.928,0V54.513a5.984,5.984,0,1,1-11.967,0V12.571A1.964,1.964,0,0,0,72.1,10.607H43V3.928h43.03v11.54a1.964,1.964,0,0,0,3.928,0V1.964A1.964,1.964,0,0,0,88,0H41.037a1.964,1.964,0,0,0-1.964,1.964v8.642H25.142a1.964,1.964,0,0,0-1.964,1.964V33H6.678A6.686,6.686,0,0,0,0,39.677V93.888a6.686,6.686,0,0,0,6.678,6.678H45.569a6.686,6.686,0,0,0,6.678-6.678V64.425h8.315a1.964,1.964,0,0,0,0-3.928H52.247V39.677A6.686,6.686,0,0,0,45.569,33H27.106V14.535h43.03V54.513a9.888,9.888,0,0,0,3.227,7.311A20.033,20.033,0,1,0,87,61.569ZM48.319,39.677V93.888a2.753,2.753,0,0,1-2.75,2.75H6.678a2.753,2.753,0,0,1-2.75-2.75V39.677a2.753,2.753,0,0,1,2.75-2.75H45.569A2.753,2.753,0,0,1,48.319,39.677ZM80.532,96.638A16.106,16.106,0,1,1,96.638,80.532,16.125,16.125,0,0,1,80.532,96.638Z" fill="#104469"/>
      <path id="Trazado_194715" data-name="Trazado 194715" d="M262.964,149.928h9.2a1.964,1.964,0,0,0,0-3.928h-9.2a1.964,1.964,0,0,0,0,3.928Z" transform="translate(-209.735 -117.323)" fill="#104469"/>
      <path id="Trazado_194716" data-name="Trazado 194716" d="M226.88,99.964A1.964,1.964,0,0,0,224.916,98H203.964a1.964,1.964,0,0,0,0,3.928h20.951A1.964,1.964,0,0,0,226.88,99.964Z" transform="translate(-162.323 -78.751)" fill="#104469"/>
      <path id="Trazado_194717" data-name="Trazado 194717" d="M163.076,98.576A1.963,1.963,0,1,0,164.464,98,1.979,1.979,0,0,0,163.076,98.576Z" transform="translate(-130.582 -78.751)" fill="#104469"/>
      <path id="Trazado_194718" data-name="Trazado 194718" d="M285.826,194h-5.862a1.964,1.964,0,1,0,0,3.928h5.862a1.964,1.964,0,1,0,0-3.928Z" transform="translate(-223.396 -155.895)" fill="#104469"/>
      <path id="Trazado_194719" data-name="Trazado 194719" d="M279.964,245.928h5.862a1.964,1.964,0,1,0,0-3.928h-5.862a1.964,1.964,0,1,0,0,3.928Z" transform="translate(-223.396 -194.467)" fill="#104469"/>
    </g>
  </g>
</svg>
