<svg xmlns="http://www.w3.org/2000/svg" xmlns:xlink="http://www.w3.org/1999/xlink" width="399" height="498" viewBox="0 0 399 498">
  <defs>
    <clipPath id="clip-path">
      <rect id="Rectángulo_44600" data-name="Rectángulo 44600" width="223.074" height="371" fill="#ace6eb"/>
    </clipPath>
    <clipPath id="clip-path-2">
      <rect id="Rectángulo_44604" data-name="Rectángulo 44604" width="239.747" height="305.409" fill="none"/>
    </clipPath>
  </defs>
  <g id="Grupo_146377" data-name="Grupo 146377" transform="translate(-1021 -2560)">
    <rect id="Rectángulo_44597" data-name="Rectángulo 44597" width="399" height="498" rx="8" transform="translate(1021 2560)" fill="#b0eef4"/>
    <text id="Régimen_tributario_especial:" data-name="Régimen tributario 
especial:" transform="translate(1060 2635)" fill="#12263f" font-size="24" font-family="Roboto-Black, Roboto" font-weight="800"><tspan x="0" y="0">Régimen tributario </tspan><tspan x="0" y="30">especial:</tspan></text>
    <g id="Icon_feather-rotate-ccw" data-name="Icon feather-rotate-ccw" transform="translate(1342.5 3004.486)">
      <path id="Trazado_194131" data-name="Trazado 194131" d="M1.5,6v9h9" fill="none" stroke="#fff" stroke-linecap="round" stroke-linejoin="round" stroke-width="3"/>
      <path id="Trazado_194132" data-name="Trazado 194132" d="M5.265,22.5A13.5,13.5,0,1,0,8.46,8.46L1.5,15" fill="none" stroke="#fff" stroke-linecap="round" stroke-linejoin="round" stroke-width="3"/>
    </g>
    <g id="Grupo_146163" data-name="Grupo 146163">
      <g id="Grupo_146160" data-name="Grupo 146160" transform="translate(1108.963 2687)">
        <g id="Grupo_146145" data-name="Grupo 146145" clip-path="url(#clip-path)">
          <path id="Trazado_194590" data-name="Trazado 194590" d="M75.94,109.724S59.895,80.195,31.767,78.279C15.757,77.19-2.672,80.525.323,84.269s24.707,35.937,75.617,25.455" transform="translate(0 -0.338)" fill="#ace6eb"/>
          <path id="Trazado_194591" data-name="Trazado 194591" d="M77.953,109.641s5.654-33.128,31.658-44.02c14.8-6.2,33.321-8.991,31.7-4.482s-11.785,41.988-63.354,48.5" transform="translate(-0.338 -0.255)" fill="#ace6eb"/>
          <path id="Trazado_194592" data-name="Trazado 194592" d="M76.405,78.41S60,49.081,73.389,24.272C81.012,10.152,93.67-3.653,95.237.877s17.2,40.074-18.832,77.533" transform="translate(-0.295 0)" fill="#ace6eb"/>
          <path id="Trazado_194593" data-name="Trazado 194593" d="M80.988,155.718s-16.045-29.53-44.173-31.445c-16.009-1.089-34.439,2.246-31.444,5.99S30.077,166.2,80.988,155.718" transform="translate(-0.022 -0.537)" fill="#ace6eb"/>
          <path id="Trazado_194594" data-name="Trazado 194594" d="M81.879,155.661s8.837-32.425,35.773-40.746c15.332-4.736,34.036-5.721,31.98-1.39s-15.8,40.649-67.753,42.136" transform="translate(-0.355 -0.48)" fill="#ace6eb"/>
          <path id="Trazado_194595" data-name="Trazado 194595" d="M88.712,200.587S67.7,174.359,39.675,177.448c-15.95,1.758-33.5,8.3-29.89,11.455s30.672,31,78.927,11.684" transform="translate(-0.04 -0.767)" fill="#ace6eb"/>
          <path id="Trazado_194596" data-name="Trazado 194596" d="M90.05,200.161s11.1-31.721,38.555-38.125c15.627-3.644,34.354-3.309,32,.867s-18.62,39.436-70.553,37.258" transform="translate(-0.39 -0.691)" fill="#ace6eb"/>
          <path id="Trazado_194597" data-name="Trazado 194597" d="M99.478,241.6S75.09,218.475,47.748,225.35C32.186,229.263,15.69,238.134,19.7,240.767s34.608,26.539,79.783.83" transform="translate(-0.083 -0.97)" fill="#ace6eb"/>
          <path id="Trazado_194598" data-name="Trazado 194598" d="M100.021,241.438s13.654-30.708,41.541-34.847c15.872-2.356,34.509-.492,31.821,3.478s-21.78,37.783-73.362,31.37" transform="translate(-0.433 -0.89)" fill="#ace6eb"/>
          <path id="Trazado_194599" data-name="Trazado 194599" d="M111.26,274.156S83.7,254.92,57.688,265.787c-14.807,6.184-29.8,17.411-25.446,19.42s38.17,21.093,79.018-11.05" transform="translate(-0.136 -1.136)" fill="#ace6eb"/>
          <path id="Trazado_194600" data-name="Trazado 194600" d="M114.412,274.035s11.624-31.533,39.183-37.48c15.686-3.384,34.4-2.738,31.98,1.4s-19.273,39.121-71.163,36.082" transform="translate(-0.495 -1.015)" fill="#ace6eb"/>
          <path id="Trazado_194601" data-name="Trazado 194601" d="M128.434,307.128s11.624-31.533,39.183-37.48c15.686-3.384,34.4-2.738,31.98,1.4s-19.273,39.121-71.163,36.082" transform="translate(-0.556 -1.158)" fill="#ace6eb"/>
          <path id="Trazado_194602" data-name="Trazado 194602" d="M152.358,343.88s11.624-31.533,39.183-37.48c15.686-3.384,34.4-2.738,31.98,1.4s-19.273,39.121-71.163,36.082" transform="translate(-0.66 -1.317)" fill="#ace6eb"/>
          <path id="Trazado_194603" data-name="Trazado 194603" d="M126.966,307.249s-27.557-19.236-53.572-8.37c-14.807,6.184-29.8,17.411-25.446,19.42s38.17,21.093,79.018-11.05" transform="translate(-0.204 -1.28)" fill="#ace6eb"/>
          <path id="Trazado_194604" data-name="Trazado 194604" d="M151.084,344.83s-27.557-19.236-53.572-8.37c-14.807,6.184-29.8,17.411-25.446,19.42s38.17,21.093,79.018-11.05" transform="translate(-0.309 -1.442)" fill="#ace6eb"/>
          <path id="Trazado_194605" data-name="Trazado 194605" d="M172.882,371.29a1.36,1.36,0,0,1-1.008-.445c-24.693-27.058-45.126-59.811-60.733-97.348-12.477-30.006-21.915-63.119-28.052-98.42C72.641,114.983,75.433,68.722,75.462,68.262a1.364,1.364,0,1,1,2.722.173c-.03.458-2.8,46.455,7.6,106.245,6.106,35.091,15.489,68,27.887,97.809,15.485,37.228,35.743,69.7,60.213,96.517a1.364,1.364,0,0,1-1.007,2.283" transform="translate(-0.325 -0.29)" fill="#ace6eb"/>
        </g>
      </g>
      <g id="Grupo_146158" data-name="Grupo 146158" transform="translate(1053.769 2752.591)">
        <g id="Grupo_146157" data-name="Grupo 146157" transform="translate(0)" clip-path="url(#clip-path-2)">
          <path id="Trazado_194666" data-name="Trazado 194666" d="M166.553,7.191s14.041,3.78,17.822,12.961,1.081,11.071.27,10.8-2.7-3.78-2.7-3.78,2.97,8.372-.811,11.882-9.992,8.37-9.992,8.37.811,10.8,4.051,17.553,7.831,14.311,5.4,17.281-5.4-1.35-5.4-1.35-2.7,6.752-12.151,9.181-29.147,5.827-37.248,4.746a27.948,27.948,0,0,1-13.518-5.826s2.431,4.59-1.89,1.89-7.021-6.211-11.34-15.933-7.022-25.112-4.861-36.994S106.877,16.1,113.9,10.431,135.23-.641,148.191.709s18.362,6.481,18.362,6.481" transform="translate(-54.009 0.075)" fill="#1a878e"/>
          <path id="Trazado_194667" data-name="Trazado 194667" d="M166.553,7.191s14.041,3.78,17.822,12.961,1.081,11.071.27,10.8-2.7-3.78-2.7-3.78,2.97,8.372-.811,11.882-9.992,8.37-9.992,8.37.811,10.8,4.051,17.553,7.831,14.311,5.4,17.281-5.4-1.35-5.4-1.35-2.7,6.752-12.151,9.181-29.147,5.827-37.248,4.746a27.948,27.948,0,0,1-13.518-5.826s2.431,4.59-1.89,1.89-7.021-6.211-11.34-15.933-7.022-25.112-4.861-36.994S106.877,16.1,113.9,10.431,135.23-.641,148.191.709,166.553,7.191,166.553,7.191Z" transform="translate(-54.009 0.075)" fill="none" stroke="#104469" stroke-linecap="round" stroke-linejoin="round" stroke-width="1"/>
          <path id="Trazado_194668" data-name="Trazado 194668" d="M153.224,98.982l-3.545,44.54,18.729,34.657,7.823-15.931Z" transform="translate(-108.582 14.826)" fill="#79dae1"/>
          <path id="Trazado_194669" data-name="Trazado 194669" d="M153.224,98.982l-3.545,44.54,18.729,34.657,7.823-15.931Z" transform="translate(-108.582 14.826)" fill="none" stroke="#001e6c" stroke-linecap="round" stroke-linejoin="round" stroke-width="1"/>
          <path id="Trazado_194670" data-name="Trazado 194670" d="M149.53,131.467l5.424,34.784,4.675-7.668Z" transform="translate(-91.808 19.691)" fill="#104469"/>
          <path id="Trazado_194671" data-name="Trazado 194671" d="M149.53,131.467l5.424,34.784,4.675-7.668Z" transform="translate(-91.808 19.691)" fill="none" stroke="#104469" stroke-linecap="round" stroke-linejoin="round" stroke-width="1"/>
          <path id="Trazado_194672" data-name="Trazado 194672" d="M183.14,270.72,179.3,227.761l-112.769,4.6-1.918,37.59Z" transform="translate(-17.689 34.114)" fill="#104469"/>
          <path id="Trazado_194673" data-name="Trazado 194673" d="M183.14,270.72,179.3,227.761l-112.769,4.6-1.918,37.59Z" transform="translate(-17.689 34.114)" fill="none" stroke="#001e6c" stroke-linecap="round" stroke-linejoin="round" stroke-width="1"/>
          <path id="Trazado_194674" data-name="Trazado 194674" d="M127.161,19.666s1.749,11.493-.249,13.492S114.919,39.9,114.919,39.9s1.25-12.743,1.25-13.493-7,17.24-10.494,19.489-9.994,7.746-9.994,7.746-1,3-2,2.748-3.248-2.5-3.248-2.5-7.246-2-6.5,3.748,5.747,13.492,8.745,13.992a21.127,21.127,0,0,0,5.246.25s4,11.993,4.5,15.99.75,4.747.249,6.247-11.993,7-14.492,7.746S65.7,110.863,65.7,110.863l23.736,66.461-24.486,87.7s36.729,8.5,71.708,5.248,49.47-10.744,49.47-10.744l-29.732-84.2,10.744-72.207-39.476-7.246-.75-8.995s9.744-2.748,12.992-9.744c3.368-7.255.25-19.988,0-23.736a77.93,77.93,0,0,1,0-13.242c.5-4.247-1.5-17.489-12.743-20.488" transform="translate(-21.055 2.946)" fill="#79dae1"/>
          <path id="Trazado_194675" data-name="Trazado 194675" d="M127.161,19.666s1.749,11.493-.249,13.492S114.919,39.9,114.919,39.9s1.25-12.743,1.25-13.493-7,17.24-10.494,19.489-9.994,7.746-9.994,7.746-1,3-2,2.748-3.248-2.5-3.248-2.5-7.246-2-6.5,3.748,5.747,13.492,8.745,13.992a21.127,21.127,0,0,0,5.246.25s4,11.993,4.5,15.99.75,4.747.249,6.247-11.993,7-14.492,7.746S65.7,110.863,65.7,110.863l23.736,66.461-24.486,87.7s36.729,8.5,71.708,5.248,49.47-10.744,49.47-10.744l-29.732-84.2,10.744-72.207-39.476-7.246-.75-8.995s9.744-2.748,12.992-9.744c3.368-7.255.25-19.988,0-23.736a77.93,77.93,0,0,1,0-13.242C140.4,35.907,138.405,22.665,127.161,19.666Z" transform="translate(-21.055 2.946)" fill="none" stroke="#104469" stroke-linecap="round" stroke-linejoin="round" stroke-width="1"/>
          <path id="Trazado_194676" data-name="Trazado 194676" d="M129.078,146.666s-27.085,16.251-28.168,16.612" transform="translate(-5.355 21.968)" fill="none" stroke="#104469" stroke-linecap="round" stroke-linejoin="round" stroke-width="1"/>
          <line id="Línea_144" data-name="Línea 144" x1="19.14" y2="13.001" transform="translate(93.749 179.107)" fill="none" stroke="#104469" stroke-linecap="round" stroke-linejoin="round" stroke-width="1"/>
          <path id="Trazado_194677" data-name="Trazado 194677" d="M110.52,99.982c4.224-1.967,9.658-4.839,10-5.859.5-1.5.249-2.249-.249-6.247s-4.5-15.991-4.5-15.991a21.06,21.06,0,0,1-5.246-.25c-3-.5-8-8.245-8.745-13.992s6.5-3.748,6.5-3.748,2.249,2.249,3.248,2.5,2-2.748,2-2.748,6.5-5.5,10-7.745S134.01,25.662,134.01,26.412,132.761,39.9,132.761,39.9s9.994-4.746,11.993-6.746.25-13.492.25-13.492c11.244,3,13.242,16.239,12.743,20.488a77.929,77.929,0,0,0,0,13.242c.249,3.747,3.368,16.481,0,23.736-3.248,7-12.992,9.744-12.992,9.744l.75,8.995L156.542,97.9l5.142,29.5-40.8,2.892Z" transform="translate(-38.898 2.946)" fill="#fff"/>
          <path id="Trazado_194678" data-name="Trazado 194678" d="M110.52,99.982c4.224-1.967,9.658-4.839,10-5.859.5-1.5.249-2.249-.249-6.247s-4.5-15.991-4.5-15.991a21.06,21.06,0,0,1-5.246-.25c-3-.5-8-8.245-8.745-13.992s6.5-3.748,6.5-3.748,2.249,2.249,3.248,2.5,2-2.748,2-2.748,6.5-5.5,10-7.745S134.01,25.662,134.01,26.412,132.761,39.9,132.761,39.9s9.994-4.746,11.993-6.746.25-13.492.25-13.492c11.244,3,13.242,16.239,12.743,20.488a77.929,77.929,0,0,0,0,13.242c.249,3.747,3.368,16.481,0,23.736-3.248,7-12.992,9.744-12.992,9.744l.75,8.995L156.542,97.9l5.142,29.5-40.8,2.892Z" transform="translate(-38.898 2.946)" fill="none" stroke="#001e6c" stroke-linecap="round" stroke-linejoin="round" stroke-width="1"/>
          <line id="Línea_145" data-name="Línea 145" x2="0.337" y2="7.754" transform="translate(106.606 98.816)" fill="none" stroke="#001e6c" stroke-linecap="round" stroke-linejoin="round" stroke-width="1"/>
          <path id="Trazado_194679" data-name="Trazado 194679" d="M125.217,71.276a25.889,25.889,0,0,0,14.338,6.066" transform="translate(-43.779 10.676)" fill="none" stroke="#104469" stroke-linecap="round" stroke-linejoin="round" stroke-width="1"/>
          <path id="Trazado_194680" data-name="Trazado 194680" d="M128.268,62.279a13.406,13.406,0,0,1-13.992-3.5" transform="translate(-19.913 8.804)" fill="none" stroke="#104469" stroke-linecap="round" stroke-linejoin="round" stroke-width="1"/>
          <path id="Trazado_194681" data-name="Trazado 194681" d="M115.234,38.807s-.3.909,0,4.243,6.3,12.146,4.484,13.056-3.392.524-7.029.827" transform="translate(-9.881 5.813)" fill="none" stroke="#104469" stroke-linecap="round" stroke-linejoin="round" stroke-width="1"/>
          <path id="Trazado_194682" data-name="Trazado 194682" d="M110.162,43.442c0,1.566.785,2.835,1.756,2.835s1.755-1.269,1.755-2.835-.785-2.835-1.755-2.835-1.756,1.269-1.756,2.835" transform="translate(-0.587 6.082)" fill="#104469"/>
          <path id="Trazado_194683" data-name="Trazado 194683" d="M124.723,44.969c0,1.566.786,2.835,1.755,2.835s1.756-1.269,1.756-2.835-.785-2.835-1.756-2.835-1.755,1.269-1.755,2.835" transform="translate(-31.89 6.311)" fill="#104469"/>
          <path id="Trazado_194684" data-name="Trazado 194684" d="M116.279,37.793s-4.051-2.97-7.291-1.35" transform="translate(-1.844 5.386)" fill="none" stroke="#104469" stroke-linecap="round" stroke-linejoin="round" stroke-width="1"/>
          <path id="Trazado_194685" data-name="Trazado 194685" d="M132.589,37.092s-5.941-.811-8.1,4.051" transform="translate(-35.976 5.548)" fill="none" stroke="#104469" stroke-linecap="round" stroke-linejoin="round" stroke-width="1"/>
          <path id="Trazado_194686" data-name="Trazado 194686" d="M10.168,92.671l4.651,32.307L29,154.459l28.226-42.33s.964-6.747,2.57-9.317,7.068-3.855,10.28-6.1,5.461-9.317,8.031-6.746.964,7.067,0,8.352S69.75,105.7,69.75,105.7l17.989,5.782s14.135-6.747,15.42-4.176S92.88,122.087,88.382,123.371,65.9,121.765,65.9,121.765,45.657,171.236,41.161,176.7,30.88,188.9,29.6,188.582.5,158.964.5,158.964Z" transform="translate(135.914 13.392)" fill="#fff"/>
          <path id="Trazado_194687" data-name="Trazado 194687" d="M10.168,92.671l4.651,32.307L29,154.459l28.226-42.33s.964-6.747,2.57-9.317,7.068-3.855,10.28-6.1,5.461-9.317,8.031-6.746.964,7.067,0,8.352S69.75,105.7,69.75,105.7l17.989,5.782s14.135-6.747,15.42-4.176S92.88,122.087,88.382,123.371,65.9,121.765,65.9,121.765,45.657,171.236,41.161,176.7,30.88,188.9,29.6,188.582.5,158.964.5,158.964Z" transform="translate(135.914 13.392)" fill="none" stroke="#104469" stroke-linecap="round" stroke-linejoin="round" stroke-width="1"/>
          <path id="Trazado_194688" data-name="Trazado 194688" d="M4.318,113.521s4.751-3.354,6.428-3.354,18.446,2.8,18.446,2.8,8.664-4.751,10.341-3.913" transform="translate(195.249 16.319)" fill="none" stroke="#001e6c" stroke-linecap="round" stroke-linejoin="round" stroke-width="1"/>
          <path id="Trazado_194689" data-name="Trazado 194689" d="M80.466,174.825c-7.729-7.838-15.378-16.287-15.378-16.287l9.668-66.293,4.651,32.308,14.177,29.481Z" transform="translate(71.326 13.816)" fill="#79dae1"/>
          <path id="Trazado_194690" data-name="Trazado 194690" d="M80.466,174.825c-7.729-7.838-15.378-16.287-15.378-16.287l9.668-66.293,4.651,32.308,14.177,29.481Z" transform="translate(71.326 13.816)" fill="none" stroke="#001e6c" stroke-linecap="round" stroke-linejoin="round" stroke-width="1"/>
          <path id="Trazado_194691" data-name="Trazado 194691" d="M194.77,130.261s-.838-14.254-3.913-16.49-13.136-5.31-14.254-7.267-2.8-1.118-2.516,1.4,3.354,6.148,4.192,6.428,5.031,2.794,5.031,2.794a32.878,32.878,0,0,1-4.192,3.075c-.839.279-11.739,2.516-11.739,2.516s-10.9-8.944-10.9-6.708,7.267,15.931,8.1,17.608,6.987,2.236,9.5,2.516,14.533,1.4,14.533,1.4,3.075,31.582,3.354,38.849,5.031,13.974,7.546,15.652,16.49-10.341,16.211-14.814-17.608-39.966-17.608-39.966Z" transform="translate(-155.907 15.79)" fill="#fff"/>
          <path id="Trazado_194692" data-name="Trazado 194692" d="M194.77,130.261s-.838-14.254-3.913-16.49-13.136-5.31-14.254-7.267-2.8-1.118-2.516,1.4,3.354,6.148,4.192,6.428,5.031,2.794,5.031,2.794a32.878,32.878,0,0,1-4.192,3.075c-.839.279-11.739,2.516-11.739,2.516s-10.9-8.944-10.9-6.708,7.267,15.931,8.1,17.608,6.987,2.236,9.5,2.516,14.533,1.4,14.533,1.4,3.075,31.582,3.354,38.849,5.031,13.974,7.546,15.652,16.49-10.341,16.211-14.814-17.608-39.966-17.608-39.966Z" transform="translate(-155.907 15.79)" fill="none" stroke="#001e6c" stroke-linecap="round" stroke-linejoin="round" stroke-width="1"/>
          <path id="Trazado_194693" data-name="Trazado 194693" d="M207.516,130.371s-2.636-5.474-6.549-4.635-15.652,2.235-15.652,2.235-5.31-6.987-7.546-7.267" transform="translate(-172.164 18.079)" fill="none" stroke="#104469" stroke-linecap="round" stroke-linejoin="round" stroke-width="1"/>
        </g>
      </g>
      <g id="organizacion-sin-animo-de-lucro" transform="translate(534.999 2068.916)">
        <g id="Grupo_146159" data-name="Grupo 146159" transform="translate(697.424 658.098)">
          <path id="Trazado_194694" data-name="Trazado 194694" d="M2049.281,751.969c-2.038-3.669-4.583-5.93-7.281-6.514v22.264h11.186A35.209,35.209,0,0,0,2049.281,751.969Z" transform="translate(-2016.892 -745.455)" fill="#79dae1"/>
          <path id="Trazado_194695" data-name="Trazado 194695" d="M1337.268,1496.916h-8.407c-.044,1.48-.157,2.949-.338,4.383a1.4,1.4,0,0,1-2.78-.351c.167-1.32.272-2.671.315-4.033h-11.186v4.2a1.4,1.4,0,1,1-2.8,0v-4.2h-11.186a42.858,42.858,0,0,0,.406,4.718,1.4,1.4,0,1,1-2.774.4,45.694,45.694,0,0,1-.436-5.115h-8.3a23.779,23.779,0,0,0,9.155,17.239,9.85,9.85,0,0,1-.175-1.828,8.4,8.4,0,0,1,12.933-7.08,1.8,1.8,0,0,0,3.555,0,8.4,8.4,0,0,1,12.933,7.08,9.873,9.873,0,0,1-.194,1.925A23.782,23.782,0,0,0,1337.268,1496.916Z" transform="translate(-1289.764 -1471.85)" fill="#79dae1"/>
          <path id="Trazado_194696" data-name="Trazado 194696" d="M1622.658,767.72h11.186V745.456c-2.7.584-5.243,2.845-7.281,6.514A35.2,35.2,0,0,0,1622.658,767.72Z" transform="translate(-1611.537 -745.456)" fill="#79dae1"/>
          <path id="Trazado_194697" data-name="Trazado 194697" d="M2250.8,782.19a21.146,21.146,0,0,1,2.765,3.928,38.086,38.086,0,0,1,4.259,17.111h8.424A23.843,23.843,0,0,0,2250.8,782.19Z" transform="translate(-2218.724 -780.965)" fill="#79dae1"/>
          <path id="Trazado_194698" data-name="Trazado 194698" d="M1297.593,805a38.086,38.086,0,0,1,4.259-17.111,21.216,21.216,0,0,1,2.71-3.867A23.843,23.843,0,0,0,1289.276,805Z" transform="translate(-1289.276 -782.732)" fill="#79dae1"/>
        </g>
        <path id="Trazado_194699" data-name="Trazado 194699" d="M1213.874,700.382a26.482,26.482,0,0,0,5.973,4.492q.162.266.336.532a28.178,28.178,0,0,0,4.813,5.42,46.268,46.268,0,0,0,6.887,5.072,1.4,1.4,0,0,0,1.4,0,46.266,46.266,0,0,0,6.887-5.072,28.174,28.174,0,0,0,4.813-5.42q.146-.223.282-.445a26.56,26.56,0,1,0-31.394-4.58Zm24.465,8.326a45.02,45.02,0,0,1-5.755,4.335,45.02,45.02,0,0,1-5.755-4.335c-2.807-2.518-6.153-6.32-6.153-10.133a5.6,5.6,0,0,1,10.647-2.429,1.4,1.4,0,0,0,2.523,0,5.6,5.6,0,0,1,10.647,2.429C1244.492,702.388,1241.146,706.19,1238.339,708.708Zm6.493-16.076a8.4,8.4,0,0,0-10.471-1.136,8.442,8.442,0,0,0-1.777,1.529,8.445,8.445,0,0,0-1.778-1.529,8.4,8.4,0,0,0-12.933,7.079,9.841,9.841,0,0,0,.175,1.828,23.778,23.778,0,0,1-9.156-17.239h8.3a45.637,45.637,0,0,0,.436,5.115,1.4,1.4,0,0,0,1.385,1.2,1.433,1.433,0,0,0,.2-.014,1.4,1.4,0,0,0,1.188-1.586,42.791,42.791,0,0,1-.407-4.718h11.185v4.2a1.4,1.4,0,0,0,2.8,0v-4.2h11.186c-.043,1.362-.148,2.713-.315,4.033a1.4,1.4,0,1,0,2.78.351c.181-1.435.294-2.9.338-4.383h8.407A23.781,23.781,0,0,1,1247.1,700.5a9.876,9.876,0,0,0,.194-1.925A8.351,8.351,0,0,0,1244.832,692.631ZM1233.984,658.1c2.7.584,5.243,2.845,7.281,6.514a35.2,35.2,0,0,1,3.905,15.75h-11.186Zm-2.8,0v22.264H1220a35.208,35.208,0,0,1,3.905-15.75C1225.94,660.944,1228.484,658.682,1231.182,658.1Zm16.791,22.264a38.086,38.086,0,0,0-4.259-17.111,21.135,21.135,0,0,0-2.766-3.928,23.843,23.843,0,0,1,15.448,21.039h-8.424Zm-23.811-20.978a21.215,21.215,0,0,0-2.71,3.867,38.088,38.088,0,0,0-4.259,17.111h-8.317A23.843,23.843,0,0,1,1224.162,659.385Z" transform="translate(-511.452)" fill="#104469"/>
        <path id="Trazado_194700" data-name="Trazado 194700" d="M1666.817,1796.52a5.6,5.6,0,0,0-10.647-2.429,1.4,1.4,0,0,1-2.523,0A5.6,5.6,0,0,0,1643,1796.52c0,3.813,3.346,7.615,6.153,10.133a45.012,45.012,0,0,0,5.755,4.335,45.01,45.01,0,0,0,5.755-4.335C1663.471,1804.135,1666.817,1800.333,1666.817,1796.52Z" transform="translate(-933.777 -1097.945)" fill="#ef9f14"/>
        <path id="Trazado_194701" data-name="Trazado 194701" d="M2063.955,1470.235l16.331-16.331a5.567,5.567,0,0,0,1.641-3.963V1415.9a2.981,2.981,0,0,0-5.951-.254l-1.758,20.592a5.9,5.9,0,0,1,.645.557,5.858,5.858,0,0,1,0,8.285l-12.258,12.259a1.4,1.4,0,0,1-1.981-1.981l12.259-12.259a3.056,3.056,0,0,0,0-4.323,3.08,3.08,0,0,0-.522-.419.737.737,0,0,0-.521-.265,3.059,3.059,0,0,0-3.28.685l-5.1,5.1a9.109,9.109,0,0,1-6.439,2.667h-.041a7.656,7.656,0,0,0-5.449,2.257l-7.89,7.89a5.568,5.568,0,0,0-1.641,3.963v15.311h20.314V1474.2A5.567,5.567,0,0,1,2063.955,1470.235Z" transform="translate(-1319.467 -732.552)" fill="#fff"/>
        <path id="Trazado_194702" data-name="Trazado 194702" d="M759.48,1328.915a5.783,5.783,0,0,0-5.762,5.291l-1.684,19.723a5.862,5.862,0,0,0-4.923,1.665l-5.1,5.1a6.263,6.263,0,0,1-4.458,1.846h-.041a10.508,10.508,0,0,0-7.43,3.078l-7.89,7.89a8.4,8.4,0,0,0-1.061,1.3,8.4,8.4,0,0,0-1.061-1.3l-7.89-7.89a10.509,10.509,0,0,0-7.43-3.078h-.041a6.263,6.263,0,0,1-4.458-1.846l-5.1-5.1a5.857,5.857,0,0,0-4.923-1.664l-1.684-19.723A5.783,5.783,0,0,0,677,1334.7v34.045a8.405,8.405,0,0,0,2.462,5.944l16.331,16.331a2.784,2.784,0,0,1,.821,1.981v1.762a1.4,1.4,0,1,0,2.8,0V1393a5.567,5.567,0,0,0-1.641-3.963l-16.331-16.331a5.567,5.567,0,0,1-1.641-3.963V1334.7a2.981,2.981,0,0,1,5.951-.254l1.759,20.592a5.859,5.859,0,0,0-.645,8.843l12.259,12.259a1.4,1.4,0,1,0,1.981-1.981L688.849,1361.9a3.06,3.06,0,0,1,.765-4.882.731.731,0,0,1,.391-.167,3.038,3.038,0,0,1,3.167.726l5.1,5.1a9.107,9.107,0,0,0,6.439,2.667h.041a7.655,7.655,0,0,1,5.449,2.257l7.89,7.89a5.568,5.568,0,0,1,1.641,3.963v15.311a1.4,1.4,0,1,0,2.8,0V1379.45a5.567,5.567,0,0,1,1.641-3.963l7.89-7.89a7.655,7.655,0,0,1,5.449-2.257h.041a9.107,9.107,0,0,0,6.439-2.667l5.1-5.1a3.059,3.059,0,0,1,3.28-.685.737.737,0,0,1,.522.265,3.079,3.079,0,0,1,.522.419,3.057,3.057,0,0,1,0,4.323l-12.258,12.259a1.4,1.4,0,0,0,1.981,1.981l12.259-12.259a5.859,5.859,0,0,0,0-8.286,5.894,5.894,0,0,0-.645-.557l1.758-20.592a2.981,2.981,0,0,1,5.951.254v34.045a5.567,5.567,0,0,1-1.641,3.962l-16.331,16.331a5.567,5.567,0,0,0-1.641,3.963v1.762a1.4,1.4,0,1,0,2.8,0V1393a2.784,2.784,0,0,1,.821-1.981l16.331-16.331a8.406,8.406,0,0,0,2.462-5.944V1334.7A5.789,5.789,0,0,0,759.48,1328.915Z" transform="translate(0 -651.354)" fill="#104469"/>
        <path id="Trazado_194703" data-name="Trazado 194703" d="M799.288,1456.686l-7.89-7.89a7.654,7.654,0,0,0-5.448-2.257h-.041a9.106,9.106,0,0,1-6.439-2.667l-5.1-5.1a3.038,3.038,0,0,0-3.168-.726.732.732,0,0,0-.391.167,3.058,3.058,0,0,0-.765,4.882l12.259,12.259a1.4,1.4,0,1,1-1.981,1.981l-12.258-12.259a5.859,5.859,0,0,1,0-8.286,5.894,5.894,0,0,1,.645-.558l-1.758-20.592a2.981,2.981,0,0,0-5.951.254v34.045a5.567,5.567,0,0,0,1.641,3.962l16.331,16.331a5.567,5.567,0,0,1,1.641,3.963v1.762H800.93v-15.311a5.568,5.568,0,0,0-1.641-3.963Z" transform="translate(-81.199 -732.553)" fill="#fff"/>
      </g>
      <path id="Trazado_194704" data-name="Trazado 194704" d="M13.355-8.134H6.078V-3.56h8.6V0H1.45V-19.2H14.7v3.573H6.078v4.047h7.277ZM26.459-5.1a1.9,1.9,0,0,0-.719-1.582,8.93,8.93,0,0,0-2.525-1.173,24.221,24.221,0,0,1-2.953-1.173q-3.731-1.833-3.731-5.036a4.516,4.516,0,0,1,.929-2.815,6.012,6.012,0,0,1,2.63-1.9,10.235,10.235,0,0,1,3.823-.679,8.953,8.953,0,0,1,3.711.738,5.876,5.876,0,0,1,2.551,2.1,5.491,5.491,0,0,1,.91,3.118H26.473a2.32,2.32,0,0,0-.719-1.819,2.8,2.8,0,0,0-1.945-.646,3.158,3.158,0,0,0-1.958.547,1.678,1.678,0,0,0-.719,1.391,1.69,1.69,0,0,0,.791,1.338,9.975,9.975,0,0,0,2.782,1.239,17.04,17.04,0,0,1,3.27,1.378,5.494,5.494,0,0,1,3.111,4.944,4.687,4.687,0,0,1-1.9,3.955A8.444,8.444,0,0,1,23.981.264a10.332,10.332,0,0,1-4.225-.837,6.371,6.371,0,0,1-2.848-2.294,5.977,5.977,0,0,1-.956-3.355h4.641a2.944,2.944,0,0,0,.8,2.274,3.77,3.77,0,0,0,2.591.732,2.978,2.978,0,0,0,1.813-.494A1.632,1.632,0,0,0,26.459-5.1Zm17.9,1.516H38.021L36.914,0H31.97l7.04-19.2h4.351L50.454,0h-4.97ZM39.129-7.159h4.126l-2.07-6.658Zm17.35,3.6h8.055V0H51.851V-19.2h4.627Z" transform="translate(1224.551 2844.238)" fill="#12263f"/>
    </g>
  </g>
</svg>
