<svg xmlns="http://www.w3.org/2000/svg" xmlns:xlink="http://www.w3.org/1999/xlink" width="399" height="498" viewBox="0 0 399 498">
  <defs>
    <clipPath id="clip-path">
      <rect id="Rectángulo_44600" data-name="Rectángulo 44600" width="223.074" height="371" fill="#ace6eb"/>
    </clipPath>
    <clipPath id="clip-path-2">
      <rect id="Rectángulo_44604" data-name="Rectángulo 44604" width="239.747" height="305.409" fill="none"/>
    </clipPath>
  </defs>
  <g id="Grupo_146377" data-name="Grupo 146377" transform="translate(-1021 -2560)">
    <rect id="Rectángulo_44597" data-name="Rectángulo 44597" width="399" height="498" rx="8" transform="translate(1021 2560)" fill="#b0eef4"/>
    <path id="Trazado_195524" data-name="Trazado 195524" d="M7.629-6.035H5.4V0H1.289V-17.062H8a7.5,7.5,0,0,1,4.746,1.346,4.561,4.561,0,0,1,1.711,3.8,5.54,5.54,0,0,1-.721,2.95,5.115,5.115,0,0,1-2.256,1.9L15.047-.176V0H10.641ZM5.4-9.2H8a2.335,2.335,0,0,0,1.764-.617,2.384,2.384,0,0,0,.592-1.721,2.412,2.412,0,0,0-.6-1.733A2.313,2.313,0,0,0,8-13.9H5.4ZM22.9.234a6.518,6.518,0,0,1-4.723-1.74,6.009,6.009,0,0,1-1.8-4.529v-.328A7.787,7.787,0,0,1,17.092-9.8a5.274,5.274,0,0,1,2.1-2.3,6.35,6.35,0,0,1,3.281-.814A5.489,5.489,0,0,1,26.7-11.256a6.516,6.516,0,0,1,1.547,4.623V-5.1H20.391a2.846,2.846,0,0,0,.926,1.676,2.755,2.755,0,0,0,1.852.609A3.549,3.549,0,0,0,26.1-4.125l1.8,2.133A5.045,5.045,0,0,1,25.811-.369,7.069,7.069,0,0,1,22.9.234Zm-.445-10.1q-1.734,0-2.062,2.3h3.984v-.3a1.956,1.956,0,0,0-.48-1.471A1.912,1.912,0,0,0,22.453-9.867Zm-.047-8.145h4.172l-3.258,3.68L20.1-14.338ZM29.367-6.434A8.561,8.561,0,0,1,30-9.832a5.094,5.094,0,0,1,1.816-2.279,4.788,4.788,0,0,1,2.754-.8,3.807,3.807,0,0,1,3.094,1.336l.141-1.1h3.586V-.48a5.346,5.346,0,0,1-.779,2.912,5,5,0,0,1-2.256,1.9,8.292,8.292,0,0,1-3.422.662,7.153,7.153,0,0,1-2.7-.527,4.876,4.876,0,0,1-2-1.371L31.887.773a3.621,3.621,0,0,0,2.906,1.3q2.625,0,2.625-2.7v-.4A3.708,3.708,0,0,1,34.547.234,4.583,4.583,0,0,1,30.8-1.541a7.356,7.356,0,0,1-1.43-4.752Zm3.961.246a4.511,4.511,0,0,0,.586,2.467,1.849,1.849,0,0,0,1.641.908,2.1,2.1,0,0,0,1.863-.855V-9a2.045,2.045,0,0,0-1.84-.867,1.861,1.861,0,0,0-1.652.943A5.144,5.144,0,0,0,33.328-6.187ZM47.8,0H43.84V-12.68H47.8Zm-4.2-15.961a1.778,1.778,0,0,1,.609-1.391,2.29,2.29,0,0,1,1.582-.542,2.29,2.29,0,0,1,1.582.542,1.778,1.778,0,0,1,.609,1.391,1.778,1.778,0,0,1-.609,1.391,2.29,2.29,0,0,1-1.582.542,2.29,2.29,0,0,1-1.582-.542A1.778,1.778,0,0,1,43.605-15.961ZM53.965-12.68l.129,1.488a4.36,4.36,0,0,1,3.621-1.723A3.21,3.21,0,0,1,60.961-11a4.22,4.22,0,0,1,3.727-1.91q3.855,0,3.961,4.664V0H64.688V-8a2.417,2.417,0,0,0-.328-1.418,1.4,1.4,0,0,0-1.2-.445,1.871,1.871,0,0,0-1.746,1.043l.012.164V0H57.469V-7.98a2.541,2.541,0,0,0-.316-1.441,1.393,1.393,0,0,0-1.207-.445,1.894,1.894,0,0,0-1.734,1.043V0H50.262V-12.68ZM77.039.234a6.518,6.518,0,0,1-4.723-1.74,6.009,6.009,0,0,1-1.8-4.529v-.328A7.787,7.787,0,0,1,71.232-9.8a5.274,5.274,0,0,1,2.1-2.3,6.35,6.35,0,0,1,3.281-.814,5.489,5.489,0,0,1,4.219,1.658,6.516,6.516,0,0,1,1.547,4.623V-5.1H74.531a2.846,2.846,0,0,0,.926,1.676,2.755,2.755,0,0,0,1.852.609,3.549,3.549,0,0,0,2.93-1.312l1.8,2.133A5.045,5.045,0,0,1,79.951-.369,7.069,7.069,0,0,1,77.039.234Zm-.445-10.1q-1.734,0-2.062,2.3h3.984v-.3a1.956,1.956,0,0,0-.48-1.471A1.912,1.912,0,0,0,76.594-9.867Zm11-2.812.129,1.488a4.3,4.3,0,0,1,3.621-1.723,3.618,3.618,0,0,1,2.959,1.184A5.635,5.635,0,0,1,95.32-8.168V0H91.359V-8a2.14,2.14,0,0,0-.387-1.412,1.789,1.789,0,0,0-1.406-.451,1.883,1.883,0,0,0-1.723.914V0H83.895V-12.68Zm20.484-3.152v3.152h2.086v2.742h-2.086v5.8a1.481,1.481,0,0,0,.258,1,1.383,1.383,0,0,0,1.02.281,5.793,5.793,0,0,0,.984-.07V-.105a7.288,7.288,0,0,1-2.227.34,4.137,4.137,0,0,1-3.012-.961,3.939,3.939,0,0,1-.973-2.918V-9.937h-1.617V-12.68h1.617v-3.152Zm11.309,6.727-1.3-.094A2.336,2.336,0,0,0,115.7-8.027V0H111.75V-12.68h3.7l.129,1.629a3.058,3.058,0,0,1,2.777-1.863,3.851,3.851,0,0,1,1.1.141ZM124.98,0H121.02V-12.68h3.961Zm-4.2-15.961a1.778,1.778,0,0,1,.609-1.391,2.29,2.29,0,0,1,1.582-.542,2.29,2.29,0,0,1,1.582.542,1.778,1.778,0,0,1,.609,1.391,1.778,1.778,0,0,1-.609,1.391,2.29,2.29,0,0,1-1.582.542,2.29,2.29,0,0,1-1.582-.542A1.778,1.778,0,0,1,120.785-15.961Zm18.4,9.727a7.728,7.728,0,0,1-1.289,4.793A4.318,4.318,0,0,1,134.262.234,3.747,3.747,0,0,1,131.145-1.3L130.98,0h-3.539V-18h3.949v6.34a3.615,3.615,0,0,1,2.848-1.254,4.319,4.319,0,0,1,3.656,1.7,7.768,7.768,0,0,1,1.289,4.781Zm-3.961-.252a5.155,5.155,0,0,0-.486-2.6,1.639,1.639,0,0,0-1.494-.778,1.891,1.891,0,0,0-1.852,1.018v5.031a1.9,1.9,0,0,0,1.875,1.006,1.677,1.677,0,0,0,1.77-1.357A9.745,9.745,0,0,0,135.223-6.486Zm13.254,5.115A4.072,4.072,0,0,1,145.09.234a3.993,3.993,0,0,1-3.158-1.213,5.1,5.1,0,0,1-1.072-3.486V-12.68h3.949v8.238a1.419,1.419,0,0,0,1.582,1.629,2.064,2.064,0,0,0,1.934-.973V-12.68H152.3V0h-3.7Zm10.582-14.461v3.152h2.086v2.742h-2.086v5.8a1.481,1.481,0,0,0,.258,1,1.383,1.383,0,0,0,1.02.281,5.793,5.793,0,0,0,.984-.07V-.105a7.288,7.288,0,0,1-2.227.34,4.137,4.137,0,0,1-3.012-.961,3.939,3.939,0,0,1-.973-2.918V-9.937h-1.617V-12.68h1.617v-3.152ZM169.84,0a4.459,4.459,0,0,1-.375-1.137A3.672,3.672,0,0,1,166.418.234,4.5,4.5,0,0,1,163.371-.85a3.45,3.45,0,0,1-1.254-2.725,3.546,3.546,0,0,1,1.523-3.117,7.761,7.761,0,0,1,4.43-1.055h1.219v-.671q0-1.755-1.512-1.755a1.236,1.236,0,0,0-1.406,1.39h-3.949a3.54,3.54,0,0,1,1.564-2.985,6.575,6.575,0,0,1,3.99-1.147,5.764,5.764,0,0,1,3.832,1.184,4.115,4.115,0,0,1,1.441,3.246v5.613A5.748,5.748,0,0,0,173.789-.2V0Zm-2.473-2.578a2.2,2.2,0,0,0,1.225-.316,1.983,1.983,0,0,0,.7-.715V-5.637h-1.148q-2.062,0-2.062,1.852a1.131,1.131,0,0,0,.363.873A1.315,1.315,0,0,0,167.367-2.578Zm15.738-6.527L181.8-9.2a2.336,2.336,0,0,0-2.391,1.172V0h-3.949V-12.68h3.7l.129,1.629a3.058,3.058,0,0,1,2.777-1.863,3.851,3.851,0,0,1,1.1.141ZM188.7,0h-3.961V-12.68H188.7Zm-4.2-15.961a1.778,1.778,0,0,1,.609-1.391,2.29,2.29,0,0,1,1.582-.542,2.29,2.29,0,0,1,1.582.542,1.778,1.778,0,0,1,.609,1.391,1.778,1.778,0,0,1-.609,1.391,2.29,2.29,0,0,1-1.582.542,2.29,2.29,0,0,1-1.582-.542A1.778,1.778,0,0,1,184.5-15.961Zm6.129,9.5a7.484,7.484,0,0,1,.738-3.381,5.28,5.28,0,0,1,2.121-2.279,6.388,6.388,0,0,1,3.246-.8,5.83,5.83,0,0,1,4.488,1.764,6.768,6.768,0,0,1,1.641,4.8v.141a6.566,6.566,0,0,1-1.646,4.705,5.846,5.846,0,0,1-4.459,1.74,5.912,5.912,0,0,1-4.348-1.623,6.348,6.348,0,0,1-1.77-4.4Zm3.949.246a4.718,4.718,0,0,0,.551,2.578,1.835,1.835,0,0,0,1.629.82q2.109,0,2.156-3.246v-.4q0-3.41-2.18-3.41-1.98,0-2.145,2.941ZM7.242,30.234a6.518,6.518,0,0,1-4.723-1.74,6.009,6.009,0,0,1-1.8-4.529v-.328A7.787,7.787,0,0,1,1.436,20.2a5.274,5.274,0,0,1,2.1-2.3,6.35,6.35,0,0,1,3.281-.814,5.489,5.489,0,0,1,4.219,1.658,6.516,6.516,0,0,1,1.547,4.623V24.9H4.734a2.846,2.846,0,0,0,.926,1.676,2.755,2.755,0,0,0,1.852.609,3.549,3.549,0,0,0,2.93-1.312l1.8,2.133a5.045,5.045,0,0,1-2.092,1.623A7.069,7.069,0,0,1,7.242,30.234ZM6.8,20.133q-1.734,0-2.062,2.3H8.719v-.3a1.956,1.956,0,0,0-.48-1.471A1.912,1.912,0,0,0,6.8,20.133Zm14.016,6.3a.912.912,0,0,0-.527-.809,8.021,8.021,0,0,0-2-.633,9.138,9.138,0,0,1-2.437-.861,4.083,4.083,0,0,1-1.465-1.295,3.092,3.092,0,0,1-.5-1.746,3.5,3.5,0,0,1,1.441-2.877,5.938,5.938,0,0,1,3.773-1.131,6.579,6.579,0,0,1,4.031,1.137,3.555,3.555,0,0,1,1.523,2.988H20.684q0-1.523-1.605-1.523a1.591,1.591,0,0,0-1.043.346,1.07,1.07,0,0,0-.422.861.982.982,0,0,0,.516.855,4.872,4.872,0,0,0,1.646.539,14.228,14.228,0,0,1,1.986.5q2.859.984,2.859,3.527a3.321,3.321,0,0,1-1.541,2.824,6.758,6.758,0,0,1-3.99,1.09,6.9,6.9,0,0,1-2.906-.586,4.86,4.86,0,0,1-1.992-1.594,3.609,3.609,0,0,1-.715-2.121h3.691a1.526,1.526,0,0,0,.586,1.283,2.41,2.41,0,0,0,1.441.4,1.9,1.9,0,0,0,1.213-.328A1.05,1.05,0,0,0,20.813,26.438Zm17.426-2.684a7.646,7.646,0,0,1-1.33,4.717,4.264,4.264,0,0,1-3.592,1.764,3.655,3.655,0,0,1-2.871-1.277v5.918H26.5V17.32h3.691l.117,1.172a3.656,3.656,0,0,1,2.988-1.406,4.3,4.3,0,0,1,3.645,1.729,7.741,7.741,0,0,1,1.3,4.752Zm-3.949-.246q0-3.375-1.969-3.375a1.859,1.859,0,0,0-1.875,1.008v4.992a1.919,1.919,0,0,0,1.9,1.055q1.887,0,1.945-3.258Zm11.824,6.727a6.518,6.518,0,0,1-4.723-1.74,6.009,6.009,0,0,1-1.8-4.529v-.328a7.787,7.787,0,0,1,.721-3.434,5.274,5.274,0,0,1,2.1-2.3,6.35,6.35,0,0,1,3.281-.814,5.489,5.489,0,0,1,4.219,1.658,6.516,6.516,0,0,1,1.547,4.623V24.9H43.605a2.846,2.846,0,0,0,.926,1.676,2.755,2.755,0,0,0,1.852.609,3.549,3.549,0,0,0,2.93-1.312l1.8,2.133a5.045,5.045,0,0,1-2.092,1.623A7.069,7.069,0,0,1,46.113,30.234Zm-.445-10.1q-1.734,0-2.062,2.3H47.59v-.3a1.956,1.956,0,0,0-.48-1.471A1.912,1.912,0,0,0,45.668,20.133Zm12.738,7.055a1.756,1.756,0,0,0,1.289-.451,1.654,1.654,0,0,0,.445-1.26h3.7A4.384,4.384,0,0,1,62.35,28.9a5.558,5.558,0,0,1-3.85,1.336A5.627,5.627,0,0,1,54.141,28.5a6.834,6.834,0,0,1-1.594-4.8v-.164a7.723,7.723,0,0,1,.709-3.393A5.162,5.162,0,0,1,55.3,17.877a6.1,6.1,0,0,1,3.164-.791,5.488,5.488,0,0,1,3.926,1.371,4.863,4.863,0,0,1,1.453,3.715h-3.7a2.168,2.168,0,0,0-.48-1.512,1.658,1.658,0,0,0-1.289-.527q-1.535,0-1.793,1.957A13.809,13.809,0,0,0,56.5,23.8a5.424,5.424,0,0,0,.457,2.648A1.582,1.582,0,0,0,58.406,27.188ZM69.68,30H65.719V17.32H69.68Zm-4.2-15.961a1.778,1.778,0,0,1,.609-1.391,2.579,2.579,0,0,1,3.164,0,1.893,1.893,0,0,1,0,2.782,2.579,2.579,0,0,1-3.164,0A1.778,1.778,0,0,1,65.484,14.039ZM79.254,30a4.459,4.459,0,0,1-.375-1.137,3.672,3.672,0,0,1-3.047,1.371,4.5,4.5,0,0,1-3.047-1.084,3.45,3.45,0,0,1-1.254-2.725,3.546,3.546,0,0,1,1.523-3.117,7.761,7.761,0,0,1,4.43-1.055H78.7v-.671q0-1.755-1.512-1.755a1.236,1.236,0,0,0-1.406,1.39H71.836A3.54,3.54,0,0,1,73.4,18.233a6.575,6.575,0,0,1,3.99-1.147,5.764,5.764,0,0,1,3.832,1.184,4.115,4.115,0,0,1,1.441,3.246v5.613A5.748,5.748,0,0,0,83.2,29.8V30Zm-2.473-2.578a2.2,2.2,0,0,0,1.225-.316,1.983,1.983,0,0,0,.7-.715V24.363H77.555q-2.062,0-2.062,1.852a1.131,1.131,0,0,0,.363.873A1.315,1.315,0,0,0,76.781,27.422ZM89.016,30H85.055V12h3.961Z" transform="translate(1126 2635)" fill="#12263f"/>
    <g id="Grupo_146163" data-name="Grupo 146163" transform="translate(35)">
      <g id="Grupo_146160" data-name="Grupo 146160" transform="translate(1108.963 2687)">
        <g id="Grupo_146145" data-name="Grupo 146145" clip-path="url(#clip-path)">
          <path id="Trazado_194590" data-name="Trazado 194590" d="M75.94,109.724S59.895,80.195,31.767,78.279C15.757,77.19-2.672,80.525.323,84.269s24.707,35.937,75.617,25.455" transform="translate(0 -0.338)" fill="#ace6eb"/>
          <path id="Trazado_194591" data-name="Trazado 194591" d="M77.953,109.641s5.654-33.128,31.658-44.02c14.8-6.2,33.321-8.991,31.7-4.482s-11.785,41.988-63.354,48.5" transform="translate(-0.338 -0.255)" fill="#ace6eb"/>
          <path id="Trazado_194592" data-name="Trazado 194592" d="M76.405,78.41S60,49.081,73.389,24.272C81.012,10.152,93.67-3.653,95.237.877s17.2,40.074-18.832,77.533" transform="translate(-0.295 0)" fill="#ace6eb"/>
          <path id="Trazado_194593" data-name="Trazado 194593" d="M80.988,155.718s-16.045-29.53-44.173-31.445c-16.009-1.089-34.439,2.246-31.444,5.99S30.077,166.2,80.988,155.718" transform="translate(-0.022 -0.537)" fill="#ace6eb"/>
          <path id="Trazado_194594" data-name="Trazado 194594" d="M81.879,155.661s8.837-32.425,35.773-40.746c15.332-4.736,34.036-5.721,31.98-1.39s-15.8,40.649-67.753,42.136" transform="translate(-0.355 -0.48)" fill="#ace6eb"/>
          <path id="Trazado_194595" data-name="Trazado 194595" d="M88.712,200.587S67.7,174.359,39.675,177.448c-15.95,1.758-33.5,8.3-29.89,11.455s30.672,31,78.927,11.684" transform="translate(-0.04 -0.767)" fill="#ace6eb"/>
          <path id="Trazado_194596" data-name="Trazado 194596" d="M90.05,200.161s11.1-31.721,38.555-38.125c15.627-3.644,34.354-3.309,32,.867s-18.62,39.436-70.553,37.258" transform="translate(-0.39 -0.691)" fill="#ace6eb"/>
          <path id="Trazado_194597" data-name="Trazado 194597" d="M99.478,241.6S75.09,218.475,47.748,225.35C32.186,229.263,15.69,238.134,19.7,240.767s34.608,26.539,79.783.83" transform="translate(-0.083 -0.97)" fill="#ace6eb"/>
          <path id="Trazado_194598" data-name="Trazado 194598" d="M100.021,241.438s13.654-30.708,41.541-34.847c15.872-2.356,34.509-.492,31.821,3.478s-21.78,37.783-73.362,31.37" transform="translate(-0.433 -0.89)" fill="#ace6eb"/>
          <path id="Trazado_194599" data-name="Trazado 194599" d="M111.26,274.156S83.7,254.92,57.688,265.787c-14.807,6.184-29.8,17.411-25.446,19.42s38.17,21.093,79.018-11.05" transform="translate(-0.136 -1.136)" fill="#ace6eb"/>
          <path id="Trazado_194600" data-name="Trazado 194600" d="M114.412,274.035s11.624-31.533,39.183-37.48c15.686-3.384,34.4-2.738,31.98,1.4s-19.273,39.121-71.163,36.082" transform="translate(-0.495 -1.015)" fill="#ace6eb"/>
          <path id="Trazado_194601" data-name="Trazado 194601" d="M128.434,307.128s11.624-31.533,39.183-37.48c15.686-3.384,34.4-2.738,31.98,1.4s-19.273,39.121-71.163,36.082" transform="translate(-0.556 -1.158)" fill="#ace6eb"/>
          <path id="Trazado_194602" data-name="Trazado 194602" d="M152.358,343.88s11.624-31.533,39.183-37.48c15.686-3.384,34.4-2.738,31.98,1.4s-19.273,39.121-71.163,36.082" transform="translate(-0.66 -1.317)" fill="#ace6eb"/>
          <path id="Trazado_194603" data-name="Trazado 194603" d="M126.966,307.249s-27.557-19.236-53.572-8.37c-14.807,6.184-29.8,17.411-25.446,19.42s38.17,21.093,79.018-11.05" transform="translate(-0.204 -1.28)" fill="#ace6eb"/>
          <path id="Trazado_194604" data-name="Trazado 194604" d="M151.084,344.83s-27.557-19.236-53.572-8.37c-14.807,6.184-29.8,17.411-25.446,19.42s38.17,21.093,79.018-11.05" transform="translate(-0.309 -1.442)" fill="#ace6eb"/>
          <path id="Trazado_194605" data-name="Trazado 194605" d="M172.882,371.29a1.36,1.36,0,0,1-1.008-.445c-24.693-27.058-45.126-59.811-60.733-97.348-12.477-30.006-21.915-63.119-28.052-98.42C72.641,114.983,75.433,68.722,75.462,68.262a1.364,1.364,0,1,1,2.722.173c-.03.458-2.8,46.455,7.6,106.245,6.106,35.091,15.489,68,27.887,97.809,15.485,37.228,35.743,69.7,60.213,96.517a1.364,1.364,0,0,1-1.007,2.283" transform="translate(-0.325 -0.29)" fill="#ace6eb"/>
        </g>
      </g>
      <g id="Grupo_146158" data-name="Grupo 146158" transform="translate(1053.769 2752.591)">
        <g id="Grupo_146157" data-name="Grupo 146157" transform="translate(0)" clip-path="url(#clip-path-2)">
          <path id="Trazado_194666" data-name="Trazado 194666" d="M166.553,7.191s14.041,3.78,17.822,12.961,1.081,11.071.27,10.8-2.7-3.78-2.7-3.78,2.97,8.372-.811,11.882-9.992,8.37-9.992,8.37.811,10.8,4.051,17.553,7.831,14.311,5.4,17.281-5.4-1.35-5.4-1.35-2.7,6.752-12.151,9.181-29.147,5.827-37.248,4.746a27.948,27.948,0,0,1-13.518-5.826s2.431,4.59-1.89,1.89-7.021-6.211-11.34-15.933-7.022-25.112-4.861-36.994S106.877,16.1,113.9,10.431,135.23-.641,148.191.709s18.362,6.481,18.362,6.481" transform="translate(-54.009 0.075)" fill="#1a878e"/>
          <path id="Trazado_194667" data-name="Trazado 194667" d="M166.553,7.191s14.041,3.78,17.822,12.961,1.081,11.071.27,10.8-2.7-3.78-2.7-3.78,2.97,8.372-.811,11.882-9.992,8.37-9.992,8.37.811,10.8,4.051,17.553,7.831,14.311,5.4,17.281-5.4-1.35-5.4-1.35-2.7,6.752-12.151,9.181-29.147,5.827-37.248,4.746a27.948,27.948,0,0,1-13.518-5.826s2.431,4.59-1.89,1.89-7.021-6.211-11.34-15.933-7.022-25.112-4.861-36.994S106.877,16.1,113.9,10.431,135.23-.641,148.191.709,166.553,7.191,166.553,7.191Z" transform="translate(-54.009 0.075)" fill="none" stroke="#104469" stroke-linecap="round" stroke-linejoin="round" stroke-width="1"/>
          <path id="Trazado_194668" data-name="Trazado 194668" d="M153.224,98.982l-3.545,44.54,18.729,34.657,7.823-15.931Z" transform="translate(-108.582 14.826)" fill="#79dae1"/>
          <path id="Trazado_194669" data-name="Trazado 194669" d="M153.224,98.982l-3.545,44.54,18.729,34.657,7.823-15.931Z" transform="translate(-108.582 14.826)" fill="none" stroke="#001e6c" stroke-linecap="round" stroke-linejoin="round" stroke-width="1"/>
          <path id="Trazado_194670" data-name="Trazado 194670" d="M149.53,131.467l5.424,34.784,4.675-7.668Z" transform="translate(-91.808 19.691)" fill="#104469"/>
          <path id="Trazado_194671" data-name="Trazado 194671" d="M149.53,131.467l5.424,34.784,4.675-7.668Z" transform="translate(-91.808 19.691)" fill="none" stroke="#104469" stroke-linecap="round" stroke-linejoin="round" stroke-width="1"/>
          <path id="Trazado_194672" data-name="Trazado 194672" d="M183.14,270.72,179.3,227.761l-112.769,4.6-1.918,37.59Z" transform="translate(-17.689 34.114)" fill="#104469"/>
          <path id="Trazado_194673" data-name="Trazado 194673" d="M183.14,270.72,179.3,227.761l-112.769,4.6-1.918,37.59Z" transform="translate(-17.689 34.114)" fill="none" stroke="#001e6c" stroke-linecap="round" stroke-linejoin="round" stroke-width="1"/>
          <path id="Trazado_194674" data-name="Trazado 194674" d="M127.161,19.666s1.749,11.493-.249,13.492S114.919,39.9,114.919,39.9s1.25-12.743,1.25-13.493-7,17.24-10.494,19.489-9.994,7.746-9.994,7.746-1,3-2,2.748-3.248-2.5-3.248-2.5-7.246-2-6.5,3.748,5.747,13.492,8.745,13.992a21.127,21.127,0,0,0,5.246.25s4,11.993,4.5,15.99.75,4.747.249,6.247-11.993,7-14.492,7.746S65.7,110.863,65.7,110.863l23.736,66.461-24.486,87.7s36.729,8.5,71.708,5.248,49.47-10.744,49.47-10.744l-29.732-84.2,10.744-72.207-39.476-7.246-.75-8.995s9.744-2.748,12.992-9.744c3.368-7.255.25-19.988,0-23.736a77.93,77.93,0,0,1,0-13.242c.5-4.247-1.5-17.489-12.743-20.488" transform="translate(-21.055 2.946)" fill="#79dae1"/>
          <path id="Trazado_194675" data-name="Trazado 194675" d="M127.161,19.666s1.749,11.493-.249,13.492S114.919,39.9,114.919,39.9s1.25-12.743,1.25-13.493-7,17.24-10.494,19.489-9.994,7.746-9.994,7.746-1,3-2,2.748-3.248-2.5-3.248-2.5-7.246-2-6.5,3.748,5.747,13.492,8.745,13.992a21.127,21.127,0,0,0,5.246.25s4,11.993,4.5,15.99.75,4.747.249,6.247-11.993,7-14.492,7.746S65.7,110.863,65.7,110.863l23.736,66.461-24.486,87.7s36.729,8.5,71.708,5.248,49.47-10.744,49.47-10.744l-29.732-84.2,10.744-72.207-39.476-7.246-.75-8.995s9.744-2.748,12.992-9.744c3.368-7.255.25-19.988,0-23.736a77.93,77.93,0,0,1,0-13.242C140.4,35.907,138.405,22.665,127.161,19.666Z" transform="translate(-21.055 2.946)" fill="none" stroke="#104469" stroke-linecap="round" stroke-linejoin="round" stroke-width="1"/>
          <path id="Trazado_194676" data-name="Trazado 194676" d="M129.078,146.666s-27.085,16.251-28.168,16.612" transform="translate(-5.355 21.968)" fill="none" stroke="#104469" stroke-linecap="round" stroke-linejoin="round" stroke-width="1"/>
          <line id="Línea_144" data-name="Línea 144" x1="19.14" y2="13.001" transform="translate(93.749 179.107)" fill="none" stroke="#104469" stroke-linecap="round" stroke-linejoin="round" stroke-width="1"/>
          <path id="Trazado_194677" data-name="Trazado 194677" d="M110.52,99.982c4.224-1.967,9.658-4.839,10-5.859.5-1.5.249-2.249-.249-6.247s-4.5-15.991-4.5-15.991a21.06,21.06,0,0,1-5.246-.25c-3-.5-8-8.245-8.745-13.992s6.5-3.748,6.5-3.748,2.249,2.249,3.248,2.5,2-2.748,2-2.748,6.5-5.5,10-7.745S134.01,25.662,134.01,26.412,132.761,39.9,132.761,39.9s9.994-4.746,11.993-6.746.25-13.492.25-13.492c11.244,3,13.242,16.239,12.743,20.488a77.929,77.929,0,0,0,0,13.242c.249,3.747,3.368,16.481,0,23.736-3.248,7-12.992,9.744-12.992,9.744l.75,8.995L156.542,97.9l5.142,29.5-40.8,2.892Z" transform="translate(-38.898 2.946)" fill="#fff"/>
          <path id="Trazado_194678" data-name="Trazado 194678" d="M110.52,99.982c4.224-1.967,9.658-4.839,10-5.859.5-1.5.249-2.249-.249-6.247s-4.5-15.991-4.5-15.991a21.06,21.06,0,0,1-5.246-.25c-3-.5-8-8.245-8.745-13.992s6.5-3.748,6.5-3.748,2.249,2.249,3.248,2.5,2-2.748,2-2.748,6.5-5.5,10-7.745S134.01,25.662,134.01,26.412,132.761,39.9,132.761,39.9s9.994-4.746,11.993-6.746.25-13.492.25-13.492c11.244,3,13.242,16.239,12.743,20.488a77.929,77.929,0,0,0,0,13.242c.249,3.747,3.368,16.481,0,23.736-3.248,7-12.992,9.744-12.992,9.744l.75,8.995L156.542,97.9l5.142,29.5-40.8,2.892Z" transform="translate(-38.898 2.946)" fill="none" stroke="#001e6c" stroke-linecap="round" stroke-linejoin="round" stroke-width="1"/>
          <line id="Línea_145" data-name="Línea 145" x2="0.337" y2="7.754" transform="translate(106.606 98.816)" fill="none" stroke="#001e6c" stroke-linecap="round" stroke-linejoin="round" stroke-width="1"/>
          <path id="Trazado_194679" data-name="Trazado 194679" d="M125.217,71.276a25.889,25.889,0,0,0,14.338,6.066" transform="translate(-43.779 10.676)" fill="none" stroke="#104469" stroke-linecap="round" stroke-linejoin="round" stroke-width="1"/>
          <path id="Trazado_194680" data-name="Trazado 194680" d="M128.268,62.279a13.406,13.406,0,0,1-13.992-3.5" transform="translate(-19.913 8.804)" fill="none" stroke="#104469" stroke-linecap="round" stroke-linejoin="round" stroke-width="1"/>
          <path id="Trazado_194681" data-name="Trazado 194681" d="M115.234,38.807s-.3.909,0,4.243,6.3,12.146,4.484,13.056-3.392.524-7.029.827" transform="translate(-9.881 5.813)" fill="none" stroke="#104469" stroke-linecap="round" stroke-linejoin="round" stroke-width="1"/>
          <path id="Trazado_194682" data-name="Trazado 194682" d="M110.162,43.442c0,1.566.785,2.835,1.756,2.835s1.755-1.269,1.755-2.835-.785-2.835-1.755-2.835-1.756,1.269-1.756,2.835" transform="translate(-0.587 6.082)" fill="#104469"/>
          <path id="Trazado_194683" data-name="Trazado 194683" d="M124.723,44.969c0,1.566.786,2.835,1.755,2.835s1.756-1.269,1.756-2.835-.785-2.835-1.756-2.835-1.755,1.269-1.755,2.835" transform="translate(-31.89 6.311)" fill="#104469"/>
          <path id="Trazado_194684" data-name="Trazado 194684" d="M116.279,37.793s-4.051-2.97-7.291-1.35" transform="translate(-1.844 5.386)" fill="none" stroke="#104469" stroke-linecap="round" stroke-linejoin="round" stroke-width="1"/>
          <path id="Trazado_194685" data-name="Trazado 194685" d="M132.589,37.092s-5.941-.811-8.1,4.051" transform="translate(-35.976 5.548)" fill="none" stroke="#104469" stroke-linecap="round" stroke-linejoin="round" stroke-width="1"/>
          <path id="Trazado_194686" data-name="Trazado 194686" d="M10.168,92.671l4.651,32.307L29,154.459l28.226-42.33s.964-6.747,2.57-9.317,7.068-3.855,10.28-6.1,5.461-9.317,8.031-6.746.964,7.067,0,8.352S69.75,105.7,69.75,105.7l17.989,5.782s14.135-6.747,15.42-4.176S92.88,122.087,88.382,123.371,65.9,121.765,65.9,121.765,45.657,171.236,41.161,176.7,30.88,188.9,29.6,188.582.5,158.964.5,158.964Z" transform="translate(135.914 13.392)" fill="#fff"/>
          <path id="Trazado_194687" data-name="Trazado 194687" d="M10.168,92.671l4.651,32.307L29,154.459l28.226-42.33s.964-6.747,2.57-9.317,7.068-3.855,10.28-6.1,5.461-9.317,8.031-6.746.964,7.067,0,8.352S69.75,105.7,69.75,105.7l17.989,5.782s14.135-6.747,15.42-4.176S92.88,122.087,88.382,123.371,65.9,121.765,65.9,121.765,45.657,171.236,41.161,176.7,30.88,188.9,29.6,188.582.5,158.964.5,158.964Z" transform="translate(135.914 13.392)" fill="none" stroke="#104469" stroke-linecap="round" stroke-linejoin="round" stroke-width="1"/>
          <path id="Trazado_194688" data-name="Trazado 194688" d="M4.318,113.521s4.751-3.354,6.428-3.354,18.446,2.8,18.446,2.8,8.664-4.751,10.341-3.913" transform="translate(195.249 16.319)" fill="none" stroke="#001e6c" stroke-linecap="round" stroke-linejoin="round" stroke-width="1"/>
          <path id="Trazado_194689" data-name="Trazado 194689" d="M80.466,174.825c-7.729-7.838-15.378-16.287-15.378-16.287l9.668-66.293,4.651,32.308,14.177,29.481Z" transform="translate(71.326 13.816)" fill="#79dae1"/>
          <path id="Trazado_194690" data-name="Trazado 194690" d="M80.466,174.825c-7.729-7.838-15.378-16.287-15.378-16.287l9.668-66.293,4.651,32.308,14.177,29.481Z" transform="translate(71.326 13.816)" fill="none" stroke="#001e6c" stroke-linecap="round" stroke-linejoin="round" stroke-width="1"/>
          <path id="Trazado_194691" data-name="Trazado 194691" d="M194.77,130.261s-.838-14.254-3.913-16.49-13.136-5.31-14.254-7.267-2.8-1.118-2.516,1.4,3.354,6.148,4.192,6.428,5.031,2.794,5.031,2.794a32.878,32.878,0,0,1-4.192,3.075c-.839.279-11.739,2.516-11.739,2.516s-10.9-8.944-10.9-6.708,7.267,15.931,8.1,17.608,6.987,2.236,9.5,2.516,14.533,1.4,14.533,1.4,3.075,31.582,3.354,38.849,5.031,13.974,7.546,15.652,16.49-10.341,16.211-14.814-17.608-39.966-17.608-39.966Z" transform="translate(-155.907 15.79)" fill="#fff"/>
          <path id="Trazado_194692" data-name="Trazado 194692" d="M194.77,130.261s-.838-14.254-3.913-16.49-13.136-5.31-14.254-7.267-2.8-1.118-2.516,1.4,3.354,6.148,4.192,6.428,5.031,2.794,5.031,2.794a32.878,32.878,0,0,1-4.192,3.075c-.839.279-11.739,2.516-11.739,2.516s-10.9-8.944-10.9-6.708,7.267,15.931,8.1,17.608,6.987,2.236,9.5,2.516,14.533,1.4,14.533,1.4,3.075,31.582,3.354,38.849,5.031,13.974,7.546,15.652,16.49-10.341,16.211-14.814-17.608-39.966-17.608-39.966Z" transform="translate(-155.907 15.79)" fill="none" stroke="#001e6c" stroke-linecap="round" stroke-linejoin="round" stroke-width="1"/>
          <path id="Trazado_194693" data-name="Trazado 194693" d="M207.516,130.371s-2.636-5.474-6.549-4.635-15.652,2.235-15.652,2.235-5.31-6.987-7.546-7.267" transform="translate(-172.164 18.079)" fill="none" stroke="#104469" stroke-linecap="round" stroke-linejoin="round" stroke-width="1"/>
        </g>
      </g>
      <g id="organizacion-sin-animo-de-lucro" transform="translate(534.999 2068.916)">
        <g id="Grupo_146159" data-name="Grupo 146159" transform="translate(697.424 658.098)">
          <path id="Trazado_194694" data-name="Trazado 194694" d="M2049.281,751.969c-2.038-3.669-4.583-5.93-7.281-6.514v22.264h11.186A35.209,35.209,0,0,0,2049.281,751.969Z" transform="translate(-2016.892 -745.455)" fill="#79dae1"/>
          <path id="Trazado_194695" data-name="Trazado 194695" d="M1337.268,1496.916h-8.407c-.044,1.48-.157,2.949-.338,4.383a1.4,1.4,0,0,1-2.78-.351c.167-1.32.272-2.671.315-4.033h-11.186v4.2a1.4,1.4,0,1,1-2.8,0v-4.2h-11.186a42.858,42.858,0,0,0,.406,4.718,1.4,1.4,0,1,1-2.774.4,45.694,45.694,0,0,1-.436-5.115h-8.3a23.779,23.779,0,0,0,9.155,17.239,9.85,9.85,0,0,1-.175-1.828,8.4,8.4,0,0,1,12.933-7.08,1.8,1.8,0,0,0,3.555,0,8.4,8.4,0,0,1,12.933,7.08,9.873,9.873,0,0,1-.194,1.925A23.782,23.782,0,0,0,1337.268,1496.916Z" transform="translate(-1289.764 -1471.85)" fill="#79dae1"/>
          <path id="Trazado_194696" data-name="Trazado 194696" d="M1622.658,767.72h11.186V745.456c-2.7.584-5.243,2.845-7.281,6.514A35.2,35.2,0,0,0,1622.658,767.72Z" transform="translate(-1611.537 -745.456)" fill="#79dae1"/>
          <path id="Trazado_194697" data-name="Trazado 194697" d="M2250.8,782.19a21.146,21.146,0,0,1,2.765,3.928,38.086,38.086,0,0,1,4.259,17.111h8.424A23.843,23.843,0,0,0,2250.8,782.19Z" transform="translate(-2218.724 -780.965)" fill="#79dae1"/>
          <path id="Trazado_194698" data-name="Trazado 194698" d="M1297.593,805a38.086,38.086,0,0,1,4.259-17.111,21.216,21.216,0,0,1,2.71-3.867A23.843,23.843,0,0,0,1289.276,805Z" transform="translate(-1289.276 -782.732)" fill="#79dae1"/>
        </g>
        <path id="Trazado_194699" data-name="Trazado 194699" d="M1213.874,700.382a26.482,26.482,0,0,0,5.973,4.492q.162.266.336.532a28.178,28.178,0,0,0,4.813,5.42,46.268,46.268,0,0,0,6.887,5.072,1.4,1.4,0,0,0,1.4,0,46.266,46.266,0,0,0,6.887-5.072,28.174,28.174,0,0,0,4.813-5.42q.146-.223.282-.445a26.56,26.56,0,1,0-31.394-4.58Zm24.465,8.326a45.02,45.02,0,0,1-5.755,4.335,45.02,45.02,0,0,1-5.755-4.335c-2.807-2.518-6.153-6.32-6.153-10.133a5.6,5.6,0,0,1,10.647-2.429,1.4,1.4,0,0,0,2.523,0,5.6,5.6,0,0,1,10.647,2.429C1244.492,702.388,1241.146,706.19,1238.339,708.708Zm6.493-16.076a8.4,8.4,0,0,0-10.471-1.136,8.442,8.442,0,0,0-1.777,1.529,8.445,8.445,0,0,0-1.778-1.529,8.4,8.4,0,0,0-12.933,7.079,9.841,9.841,0,0,0,.175,1.828,23.778,23.778,0,0,1-9.156-17.239h8.3a45.637,45.637,0,0,0,.436,5.115,1.4,1.4,0,0,0,1.385,1.2,1.433,1.433,0,0,0,.2-.014,1.4,1.4,0,0,0,1.188-1.586,42.791,42.791,0,0,1-.407-4.718h11.185v4.2a1.4,1.4,0,0,0,2.8,0v-4.2h11.186c-.043,1.362-.148,2.713-.315,4.033a1.4,1.4,0,1,0,2.78.351c.181-1.435.294-2.9.338-4.383h8.407A23.781,23.781,0,0,1,1247.1,700.5a9.876,9.876,0,0,0,.194-1.925A8.351,8.351,0,0,0,1244.832,692.631ZM1233.984,658.1c2.7.584,5.243,2.845,7.281,6.514a35.2,35.2,0,0,1,3.905,15.75h-11.186Zm-2.8,0v22.264H1220a35.208,35.208,0,0,1,3.905-15.75C1225.94,660.944,1228.484,658.682,1231.182,658.1Zm16.791,22.264a38.086,38.086,0,0,0-4.259-17.111,21.135,21.135,0,0,0-2.766-3.928,23.843,23.843,0,0,1,15.448,21.039h-8.424Zm-23.811-20.978a21.215,21.215,0,0,0-2.71,3.867,38.088,38.088,0,0,0-4.259,17.111h-8.317A23.843,23.843,0,0,1,1224.162,659.385Z" transform="translate(-511.452)" fill="#104469"/>
        <path id="Trazado_194700" data-name="Trazado 194700" d="M1666.817,1796.52a5.6,5.6,0,0,0-10.647-2.429,1.4,1.4,0,0,1-2.523,0A5.6,5.6,0,0,0,1643,1796.52c0,3.813,3.346,7.615,6.153,10.133a45.012,45.012,0,0,0,5.755,4.335,45.01,45.01,0,0,0,5.755-4.335C1663.471,1804.135,1666.817,1800.333,1666.817,1796.52Z" transform="translate(-933.777 -1097.945)" fill="#ef9f14"/>
        <path id="Trazado_194701" data-name="Trazado 194701" d="M2063.955,1470.235l16.331-16.331a5.567,5.567,0,0,0,1.641-3.963V1415.9a2.981,2.981,0,0,0-5.951-.254l-1.758,20.592a5.9,5.9,0,0,1,.645.557,5.858,5.858,0,0,1,0,8.285l-12.258,12.259a1.4,1.4,0,0,1-1.981-1.981l12.259-12.259a3.056,3.056,0,0,0,0-4.323,3.08,3.08,0,0,0-.522-.419.737.737,0,0,0-.521-.265,3.059,3.059,0,0,0-3.28.685l-5.1,5.1a9.109,9.109,0,0,1-6.439,2.667h-.041a7.656,7.656,0,0,0-5.449,2.257l-7.89,7.89a5.568,5.568,0,0,0-1.641,3.963v15.311h20.314V1474.2A5.567,5.567,0,0,1,2063.955,1470.235Z" transform="translate(-1319.467 -732.552)" fill="#fff"/>
        <path id="Trazado_194702" data-name="Trazado 194702" d="M759.48,1328.915a5.783,5.783,0,0,0-5.762,5.291l-1.684,19.723a5.862,5.862,0,0,0-4.923,1.665l-5.1,5.1a6.263,6.263,0,0,1-4.458,1.846h-.041a10.508,10.508,0,0,0-7.43,3.078l-7.89,7.89a8.4,8.4,0,0,0-1.061,1.3,8.4,8.4,0,0,0-1.061-1.3l-7.89-7.89a10.509,10.509,0,0,0-7.43-3.078h-.041a6.263,6.263,0,0,1-4.458-1.846l-5.1-5.1a5.857,5.857,0,0,0-4.923-1.664l-1.684-19.723A5.783,5.783,0,0,0,677,1334.7v34.045a8.405,8.405,0,0,0,2.462,5.944l16.331,16.331a2.784,2.784,0,0,1,.821,1.981v1.762a1.4,1.4,0,1,0,2.8,0V1393a5.567,5.567,0,0,0-1.641-3.963l-16.331-16.331a5.567,5.567,0,0,1-1.641-3.963V1334.7a2.981,2.981,0,0,1,5.951-.254l1.759,20.592a5.859,5.859,0,0,0-.645,8.843l12.259,12.259a1.4,1.4,0,1,0,1.981-1.981L688.849,1361.9a3.06,3.06,0,0,1,.765-4.882.731.731,0,0,1,.391-.167,3.038,3.038,0,0,1,3.167.726l5.1,5.1a9.107,9.107,0,0,0,6.439,2.667h.041a7.655,7.655,0,0,1,5.449,2.257l7.89,7.89a5.568,5.568,0,0,1,1.641,3.963v15.311a1.4,1.4,0,1,0,2.8,0V1379.45a5.567,5.567,0,0,1,1.641-3.963l7.89-7.89a7.655,7.655,0,0,1,5.449-2.257h.041a9.107,9.107,0,0,0,6.439-2.667l5.1-5.1a3.059,3.059,0,0,1,3.28-.685.737.737,0,0,1,.522.265,3.079,3.079,0,0,1,.522.419,3.057,3.057,0,0,1,0,4.323l-12.258,12.259a1.4,1.4,0,0,0,1.981,1.981l12.259-12.259a5.859,5.859,0,0,0,0-8.286,5.894,5.894,0,0,0-.645-.557l1.758-20.592a2.981,2.981,0,0,1,5.951.254v34.045a5.567,5.567,0,0,1-1.641,3.962l-16.331,16.331a5.567,5.567,0,0,0-1.641,3.963v1.762a1.4,1.4,0,1,0,2.8,0V1393a2.784,2.784,0,0,1,.821-1.981l16.331-16.331a8.406,8.406,0,0,0,2.462-5.944V1334.7A5.789,5.789,0,0,0,759.48,1328.915Z" transform="translate(0 -651.354)" fill="#104469"/>
        <path id="Trazado_194703" data-name="Trazado 194703" d="M799.288,1456.686l-7.89-7.89a7.654,7.654,0,0,0-5.448-2.257h-.041a9.106,9.106,0,0,1-6.439-2.667l-5.1-5.1a3.038,3.038,0,0,0-3.168-.726.732.732,0,0,0-.391.167,3.058,3.058,0,0,0-.765,4.882l12.259,12.259a1.4,1.4,0,1,1-1.981,1.981l-12.258-12.259a5.859,5.859,0,0,1,0-8.286,5.894,5.894,0,0,1,.645-.558l-1.758-20.592a2.981,2.981,0,0,0-5.951.254v34.045a5.567,5.567,0,0,0,1.641,3.962l16.331,16.331a5.567,5.567,0,0,1,1.641,3.963v1.762H800.93v-15.311a5.568,5.568,0,0,0-1.641-3.963Z" transform="translate(-81.199 -732.553)" fill="#fff"/>
      </g>
      <path id="Trazado_194704" data-name="Trazado 194704" d="M13.355-8.134H6.078V-3.56h8.6V0H1.45V-19.2H14.7v3.573H6.078v4.047h7.277ZM26.459-5.1a1.9,1.9,0,0,0-.719-1.582,8.93,8.93,0,0,0-2.525-1.173,24.221,24.221,0,0,1-2.953-1.173q-3.731-1.833-3.731-5.036a4.516,4.516,0,0,1,.929-2.815,6.012,6.012,0,0,1,2.63-1.9,10.235,10.235,0,0,1,3.823-.679,8.953,8.953,0,0,1,3.711.738,5.876,5.876,0,0,1,2.551,2.1,5.491,5.491,0,0,1,.91,3.118H26.473a2.32,2.32,0,0,0-.719-1.819,2.8,2.8,0,0,0-1.945-.646,3.158,3.158,0,0,0-1.958.547,1.678,1.678,0,0,0-.719,1.391,1.69,1.69,0,0,0,.791,1.338,9.975,9.975,0,0,0,2.782,1.239,17.04,17.04,0,0,1,3.27,1.378,5.494,5.494,0,0,1,3.111,4.944,4.687,4.687,0,0,1-1.9,3.955A8.444,8.444,0,0,1,23.981.264a10.332,10.332,0,0,1-4.225-.837,6.371,6.371,0,0,1-2.848-2.294,5.977,5.977,0,0,1-.956-3.355h4.641a2.944,2.944,0,0,0,.8,2.274,3.77,3.77,0,0,0,2.591.732,2.978,2.978,0,0,0,1.813-.494A1.632,1.632,0,0,0,26.459-5.1Zm17.9,1.516H38.021L36.914,0H31.97l7.04-19.2h4.351L50.454,0h-4.97ZM39.129-7.159h4.126l-2.07-6.658Zm17.35,3.6h8.055V0H51.851V-19.2h4.627Z" transform="translate(1224.551 2844.238)" fill="#12263f"/>
    </g>
    <g id="Icon_feather-rotate-ccw" data-name="Icon feather-rotate-ccw" transform="translate(1283.5 2990.486)">
      <path id="Trazado_194131" data-name="Trazado 194131" d="M1.5,6v9h9" fill="none" stroke="#fff" stroke-linecap="round" stroke-linejoin="round" stroke-width="3"/>
      <path id="Trazado_194132" data-name="Trazado 194132" d="M5.265,22.5A13.5,13.5,0,1,0,8.46,8.46L1.5,15" fill="none" stroke="#fff" stroke-linecap="round" stroke-linejoin="round" stroke-width="3"/>
    </g>
  </g>
</svg>
